<?xml version="1.0" encoding="utf-8"?>
<!DOCTYPE svg PUBLIC "-//W3C//DTD SVG 1.0//EN" "http://www.w3.org/TR/2001/REC-SVG-20010904/DTD/svg10.dtd">
<svg version="1.0" xmlns="http://www.w3.org/2000/svg" width="1024px" height="1024px" viewBox="0 0 1024 1024" preserveAspectRatio="xMidYMid meet">
 <g fill="#084d7f">
  <path d="M396 652.4 c0 -0.5 -2.3 -0.7 -5.1 -0.5 -3.7 0.2 -5.5 -0.1 -7 -1.5 -1.2 -1.1 -1.9 -1.3 -1.9 -0.5 0 1.4 -9.3 0.4 -9.8 -1 -0.2 -0.5 -0.8 -0.7 -1.2 -0.4 -1.3 0.8 -14.1 -2.6 -13.5 -3.5 0.3 -0.5 -0.3 -0.6 -1.3 -0.3 -1 0.2 -2.9 -0.7 -4.5 -2.1 -1.6 -1.4 -3.3 -2.6 -4 -2.6 -0.7 0.1 -0.1 0.7 1.3 1.5 4.6 2.6 1 1.5 -4.8 -1.4 -7.8 -4.1 -11.4 -6.6 -10.5 -7.5 0.5 -0.4 0.3 -0.6 -0.3 -0.4 -1.8 0.5 -7 -3.8 -11.5 -9.4 -3.1 -4 -3.7 -5.3 -2.7 -6.1 0.9 -0.6 0.8 -0.7 -0.5 -0.3 -1.5 0.5 -2.5 -0.8 -5.3 -6.8 -5.2 -11.4 -6.7 -19 -6.7 -35.1 0.1 -15.5 1.9 -24.8 7.2 -36 3.3 -7.2 11.8 -17.8 13.3 -16.9 0.6 0.4 0.8 0.2 0.4 -0.4 -0.8 -1.3 10.5 -10.4 12.2 -9.7 0.7 0.3 1.1 0.1 0.8 -0.4 -0.8 -1.3 14.6 -8.1 17.2 -7.6 1.2 0.2 2 0 1.7 -0.5 -1.1 -1.8 14.8 -5.5 30.6 -7.1 13.4 -1.3 40.3 -0.6 52.9 1.5 13.1 2.2 22.4 4.7 20.8 5.7 -0.8 0.6 0 0.9 2.4 0.9 4.5 0 15.2 4.5 14.3 6 -0.6 1 -0.5 1.1 3.1 1.5 2.9 0.3 4.6 1.4 3.9 2.6 -0.3 0.5 0.1 0.6 0.9 0.3 2.1 -0.8 18 15.1 17.2 17.2 -0.3 0.8 -0.2 1.2 0.3 0.9 0.5 -0.3 1.2 -0.1 1.6 0.5 0.3 0.5 0.1 1 -0.5 1 -0.6 0 -0.8 0.5 -0.5 1 0.4 0.6 1 0.8 1.5 0.5 0.5 -0.3 2 1.9 3.4 4.9 2.9 6.1 3.1 7 1.5 6 -0.8 -0.4 -0.9 0.1 -0.4 1.7 1 3.3 2.5 4.8 1.8 1.8 -0.3 -1.3 -0.3 -2.1 0 -1.8 0.4 0.3 1.4 4.1 2.3 8.4 2.5 12.1 1.5 33.3 -2 44 -3.1 9.6 -8.2 18.9 -9.8 17.9 -0.6 -0.4 -0.8 -0.3 -0.5 0.3 0.9 1.4 -3.2 6.5 -4.5 5.7 -0.6 -0.4 -0.8 -0.2 -0.5 0.3 1 1.6 -6 7.3 -8.8 7.3 -1.4 0 -2.5 0.5 -2.5 1.1 0 0.5 0.6 0.7 1.3 0.3 0.6 -0.4 0.5 0 -0.3 0.9 -2.5 2.5 -11.8 6.9 -13.1 6.1 -0.7 -0.4 -0.9 -0.3 -0.6 0.3 0.9 1.4 -4.8 3.7 -6.8 2.9 -1.1 -0.4 -1.4 -0.2 -0.9 0.6 0.5 0.7 0 0.9 -1.4 0.6 -1.2 -0.4 -2 -0.3 -1.7 0.2 0.7 1.1 -4.3 2.2 -6.7 1.4 -1.4 -0.4 -1.8 -0.2 -1.4 0.5 0.7 1.1 -1.4 1.5 -6.7 1.2 -1.7 -0.1 -2.6 0.3 -2.2 0.9 0.3 0.6 -0.4 1 -1.7 1 -1.8 0 -2 -0.2 -0.8 -1 1.2 -0.8 0.9 -1 -1.2 -1 -3 0 -4.9 1.9 -2.1 2.1 1 0.1 -0.4 0.5 -3.2 1 -7.7 1.3 -42.5 2.3 -42.5 1.3z m25 -37.4 c0.3 -0.3 3.7 -1.1 7.7 -1.8 3.9 -0.6 9.6 -2.3 12.7 -3.6 3 -1.3 5.8 -2.1 6.2 -1.8 0.4 0.4 0.3 0.1 -0.1 -0.7 -0.6 -1.1 -0.4 -1.3 0.9 -0.8 0.9 0.4 1.5 0.3 1.2 -0.2 -0.3 -0.4 1.1 -2.3 3 -4.2 5.1 -4.9 8.3 -10.7 9.8 -18.2 3.7 -17.7 -3.7 -35 -18.6 -43.6 -2.7 -1.5 -4.5 -3.1 -4.1 -3.4 0.3 -0.4 -0.4 -0.6 -1.8 -0.6 -1.3 0.1 -5.1 -0.3 -8.3 -1 -3.3 -0.6 -7.5 -1.1 -9.3 -1.1 -2 0 -3.3 -0.5 -3.3 -1.2 0 -1 -0.2 -1 -0.8 0 -0.5 0.7 -1.5 1 -2.4 0.7 -2.6 -1 -21.4 1.4 -27.2 3.4 -3 1 -7.4 3.3 -9.9 5 -2.4 1.6 -4.8 2.7 -5.2 2.3 -0.5 -0.4 -0.6 -0.2 -0.2 0.4 0.3 0.5 -1.1 2.8 -3.1 5 -2 2.1 -3.6 4.4 -3.7 4.9 0 0.6 -0.8 3.3 -1.7 6 -5 15.2 -1.7 31.6 8.4 41.7 5 5 14.8 9.6 23.3 11.1 3.6 0.6 6.5 1.4 6.5 1.7 0 0.7 19.3 0.7 20 0z"/>
  <path d="M95 573.1 l0 -74.1 69.3 0 c70.9 0.1 82.3 0.5 84 3.5 0.6 1.1 1.6 1.5 3.3 1.1 1.3 -0.4 4.5 0.2 7.2 1.2 6.1 2.4 14.4 8 13.6 9.3 -0.3 0.5 0 0.8 0.7 0.7 2 -0.5 7.8 8 9.5 13.8 0.9 3 1.6 8.7 1.6 12.6 0 5.8 -0.5 8.1 -3.1 13.3 -3.1 6.3 -9.1 12.2 -11.1 11 -0.6 -0.4 -0.9 -0.1 -0.8 0.6 0.2 0.7 -1.2 1.7 -2.9 2.2 -1.8 0.5 -3.3 1.3 -3.3 1.8 0 0.4 2.3 1.5 5 2.4 3.1 1 4.8 2.1 4.3 2.8 -0.4 0.6 0 0.8 1 0.4 1.9 -0.7 8.5 3.9 12.1 8.5 3.9 5.2 7.2 13.9 4.6 12.3 -0.6 -0.3 -1 -0.1 -1 0.4 0 0.6 0.7 1.1 1.6 1.1 1.5 0 1.6 1.1 1.1 8.5 -0.4 6.7 -1.1 9.8 -3.3 14.3 -1.6 3.1 -3.5 5.6 -4.2 5.4 -0.6 -0.1 -1.1 0.1 -1.1 0.5 0.4 2.4 -0.3 3.5 -1.7 2.9 -0.8 -0.3 -1.3 -0.2 -1 0.3 0.8 1.3 -3.1 4.4 -4.5 3.5 -0.8 -0.4 -1 -0.3 -0.5 0.4 1.5 2.5 -20.2 11 -25.1 9.7 -1.4 -0.3 -2.2 -0.2 -1.9 0.3 0.3 0.6 -0.9 1.3 -2.7 1.7 -1.7 0.4 -36.4 0.9 -76.9 1.2 l-73.8 0.4 0 -74z m130 38.8 c1.9 -0.7 4.7 -2 6.1 -3 1.4 -1 2.8 -1.7 3 -1.5 0.2 0.3 0.5 -1.8 0.7 -4.6 0.4 -5.9 -1.2 -8.8 -6.1 -11.2 -3.1 -1.4 -8.3 -1.6 -41.6 -1.6 l-38.1 0 0 11.3 c0 6.3 0.2 11.6 0.4 11.8 1 1 72.3 -0.2 75.6 -1.2z m-23.9 -54.5 c15 -0.1 17.1 -0.3 21.2 -2.3 2.5 -1.2 4.8 -2.9 5.2 -3.9 0.5 -1.3 0.8 -1.4 1.4 -0.3 0.5 0.7 0.7 -1.3 0.5 -4.5 -0.4 -6.8 -3.5 -10.8 -9.2 -11.9 -2.1 -0.4 -18.3 -0.7 -36.1 -0.6 -24.3 0.1 -32.7 -0.2 -33.2 -1.1 -1.4 -2.1 -2 3.3 -1.7 14.2 l0.3 10.5 16.3 -0.1 c8.9 0 16.2 0.4 16.2 0.9 0 0.4 0.6 0.5 1.3 0 0.6 -0.4 8.7 -0.8 17.8 -0.9z"/>
  <path d="M859.5 640.2 c-2.8 -0.6 -4.6 -2.2 -3.8 -3.5 0.3 -0.6 0.1 -0.7 -0.6 -0.3 -0.6 0.4 -2.8 -0.9 -5.1 -3.3 -4 -4 -5.1 -5.9 -2.7 -4.5 0.6 0.4 0.3 -0.2 -0.7 -1.4 -1.1 -1.2 -2.4 -2.2 -2.9 -2.2 -0.6 0 -0.2 0.7 0.9 1.5 1 0.8 1.4 1.5 0.9 1.5 -0.6 0 -3.5 -2.5 -6.5 -5.6 -3.1 -3.1 -4.6 -5.2 -3.5 -4.8 1.1 0.4 1.7 0.4 1.3 0 -0.3 -0.4 -1.3 -0.9 -2.2 -1 -0.9 -0.1 -2.7 -1.3 -4 -2.6 -2.1 -1.9 -2.8 -2.1 -4.1 -1 -1.3 1.1 -1.5 0.8 -1.5 -1.6 0 -2.5 3.2 -6 20.6 -22.9 13 -12.6 21.5 -20.1 23 -20.3 1.3 -0.2 2.4 0.1 2.4 0.7 0 0.6 -0.5 1.1 -1.2 1.1 -0.7 0 1.6 2.8 5 6.3 3.4 3.5 5.9 6.7 5.5 7.2 -0.4 0.4 -0.3 0.5 0.3 0.2 1.2 -0.7 8.7 6.5 7.9 7.6 -0.3 0.4 -0.2 0.5 0.2 0.2 0.9 -0.7 7.3 5.6 7.3 7.2 0 0.7 0.6 1.3 1.3 1.3 1.6 0 6.7 5.2 6.7 6.8 0 0.7 0.8 1.2 1.8 1.2 1.6 0 16 13.5 15.5 14.5 -0.2 0.3 -0.1 0.4 0.1 0.3 0.9 -0.5 7.5 6.5 7 7.4 -0.3 0.5 0.8 1.3 2.5 1.9 2.9 1 5.2 3.7 5.7 6.7 0.2 0.9 -2.9 1.2 -12.4 1.3 -7 0 -24 0.1 -37.7 0.2 -13.8 0.1 -25.9 0.1 -27 -0.1z"/>
  <path d="M516.5 635.5 c2.6 -2.4 5.3 -4.1 5.9 -3.8 0.6 0.3 0.8 0.2 0.3 -0.2 -1 -1.1 6.3 -8.6 7.6 -7.8 0.6 0.3 0.7 0.2 0.4 -0.4 -0.7 -1.1 7.6 -9.6 8.6 -8.8 0.4 0.3 0.5 0.2 0.2 -0.2 -0.8 -1 10.7 -12.3 11.8 -11.6 0.6 0.3 0.7 0.2 0.4 -0.4 -0.8 -1.3 4.7 -6.6 5.8 -5.6 0.4 0.5 0.5 0.3 0.2 -0.3 -0.8 -1.4 3.6 -5.7 4.8 -4.7 0.4 0.5 0.5 0.3 0.2 -0.3 -0.8 -1.4 3.6 -5.7 4.8 -4.7 0.4 0.5 0.5 0.3 0.2 -0.3 -0.8 -1.4 1.7 -3.7 2.8 -2.6 0.5 0.4 0.5 0.2 0.2 -0.4 -0.8 -1.4 3.6 -5.7 4.8 -4.7 0.4 0.5 0.5 0.3 0.2 -0.3 -0.8 -1.4 1.7 -3.7 2.7 -2.6 0.4 0.4 0.6 0 0.4 -0.8 -0.2 -0.9 0.3 -1.4 1.2 -1.2 0.8 0.2 1.2 0 0.8 -0.4 -0.4 -0.4 0.6 -2.2 2.2 -4.1 1.7 -1.9 2.8 -3.8 2.5 -4.4 -0.4 -0.5 0.3 -0.9 1.4 -0.9 1.6 0 2.1 0.6 2.1 2.6 0 3.9 5 23.4 7.1 27.5 2.5 5 8.9 10.5 14.8 12.6 5.5 1.9 6.8 4.5 2.9 5.8 -1.3 0.4 -2.6 0.7 -3 0.6 -0.4 0 -0.5 0.6 -0.2 1.4 0.4 0.8 0.1 1.5 -0.5 1.5 -0.5 0 -3.1 2.2 -5.7 5 -2.5 2.7 -5.1 4.7 -5.7 4.3 -0.5 -0.3 -0.7 -0.1 -0.4 0.4 0.7 1.2 -2.6 4.6 -3.6 3.8 -0.4 -0.3 -0.5 -0.2 -0.2 0.2 0.8 1 -2.6 4.3 -3.8 3.6 -0.5 -0.3 -0.7 -0.1 -0.4 0.4 0.8 1.3 -2.7 4.6 -3.7 3.6 -0.4 -0.5 -0.6 -0.1 -0.4 0.7 0.3 1.3 -4.5 1.5 -37.1 1.8 l-37.4 0.2 4.8 -4.5z"/>
  <path d="M95 400.5 l0 -79.6 67.7 0.4 c43.2 0.2 69.3 0.8 71.8 1.4 2.2 0.6 5.7 1.4 7.8 1.7 2.1 0.4 3.5 1.1 3.2 1.6 -0.3 0.4 0.5 0.6 1.7 0.2 1.6 -0.4 1.9 -0.2 1.3 0.8 -0.6 1 -0.3 1.2 1.5 0.7 2.5 -0.6 10.3 2 9.5 3.3 -0.3 0.5 0.3 0.6 1.3 0.3 1.2 -0.3 2.5 0.4 3.6 2.1 1.5 2.5 4.5 3.9 3 1.5 -0.3 -0.6 0.6 -0.3 2.2 0.7 10 6.3 21.9 19.2 20.9 22.5 -0.4 1.1 -0.2 1.9 0.5 1.9 0.6 0 0.8 -0.5 0.4 -1.2 -0.4 -0.6 -0.3 -0.8 0.4 -0.4 1.8 1.1 7.1 16 7.4 20.7 0.2 2.4 0.7 4.7 1.3 5.1 1.7 1.2 1.1 30.3 -0.8 38.8 -2.1 9.5 -5.6 18.2 -7 17.3 -0.6 -0.3 -0.7 -0.1 -0.3 0.6 1.7 2.6 -12 20.1 -14.5 18.5 -0.7 -0.4 -1 -0.3 -0.5 0.4 0.8 1.4 -6.4 6.4 -14.7 10.2 -7.3 3.3 -12.1 4.8 -9.7 3 1.3 -1 1.2 -1.1 -0.3 -0.6 -1 0.3 -2.6 0.6 -3.5 0.7 -1.3 0 -1.3 0.2 0.3 0.8 1.5 0.6 0.3 1.2 -5.2 2.5 -8.6 1.9 -9.6 2 -8.7 0.4 0.4 -0.7 -0.3 -0.4 -1.5 0.7 -2.3 2 -4 2 -70.7 2.3 l-68.3 0.3 -0.1 -79.6z m120.9 33.5 c12.7 -2.2 22.2 -9.3 26.1 -19.6 1.8 -5 2.1 -7.5 1.8 -15.9 -0.3 -9.1 -0.6 -10.5 -3.5 -15.6 -1.8 -3.1 -2.9 -6 -2.5 -6.4 0.4 -0.4 0.3 -0.5 -0.3 -0.3 -0.5 0.1 -2.5 -0.8 -4.3 -2.2 -2.3 -1.7 -2.9 -2.6 -2 -3.3 0.8 -0.5 0.4 -0.6 -1.1 -0.2 -1.7 0.5 -2.2 0.4 -1.6 -0.5 0.5 -0.8 0.4 -1.1 -0.2 -0.7 -0.5 0.3 -3.8 -0.3 -7.2 -1.3 -3.5 -1.1 -8.7 -2 -11.8 -2 -3 0 -6.4 -0.5 -7.5 -1.1 -1.5 -0.8 -1.9 -0.8 -1.3 0 0.5 0.9 -6 1.1 -25.4 0.9 l-26.1 -0.3 0 33.3 c0 22 -0.3 33.1 -1 32.7 -0.5 -0.3 -1 -0.3 -1 0.2 0 1.3 1.4 3 2.7 3.4 2.8 0.9 60.2 -0.1 66.2 -1.1z m-82.1 -111.7 c-1.6 -0.2 -4 -0.2 -5.5 0 -1.6 0.2 -0.3 0.4 2.7 0.4 3 0 4.3 -0.2 2.8 -0.4z m25 0 c-1 -0.2 -2.8 -0.2 -4 0 -1.3 0.2 -0.5 0.4 1.7 0.4 2.2 0.1 3.2 -0.1 2.3 -0.4z m16 0 c-1 -0.2 -2.8 -0.2 -4 0 -1.3 0.2 -0.5 0.4 1.7 0.4 2.2 0.1 3.2 -0.1 2.3 -0.4z m28.5 0 c-1.3 -0.2 -3.5 -0.2 -5 0 -1.6 0.2 -0.5 0.4 2.2 0.4 2.8 0 4 -0.2 2.8 -0.4z"/>
  <path d="M322 479 c1.3 -0.9 1.3 -1 0 -1 -1.3 0 -1.5 -7.8 -1.3 -64.7 0.2 -35.7 0.3 -71 0.3 -78.5 l0 -13.8 87.5 0 87.5 0 0 19.5 0 19.5 -56.2 0.1 c-31 0.1 -58.1 0.2 -60.3 0.3 l-4 0.1 0 10.8 c0 6.2 0.4 11.2 1 11.5 0.6 0.3 9.6 0.5 20 0.5 27.2 -0.3 44.5 -0.3 56 0 5.5 0.1 11.9 0 14.2 -0.4 2.3 -0.3 4 -0.3 3.8 0.1 -0.3 0.5 8.4 0.5 9.3 0 0.8 -0.6 4.9 -0.3 6 0.4 0.9 0.5 1.2 5.3 1.2 17.7 l0 16.9 -2.7 -0.1 -2.8 -0.1 2.5 -0.8 c1.9 -0.6 1.1 -0.8 -3.3 -0.9 -3.6 -0.1 -5.6 0.3 -5.2 0.9 0.3 0.6 -0.4 1 -1.7 1 -1.8 0 -2 -0.2 -0.8 -1 1.3 -0.8 1.2 -1 -0.2 -1 -1 0 -1.8 0.5 -1.8 1 0 0.6 -2.3 1 -5.1 1 -3.1 0 -4.8 -0.4 -4.4 -1 0.4 -0.6 -2.2 -0.9 -7.2 -0.8 l-7.8 0.2 7 0.6 c6.8 0.6 6.7 0.7 -3.5 0.8 -7.1 0.1 -10 -0.1 -9 -0.8 1.3 -0.8 1.2 -1 -0.2 -1 -1 0 -1.8 0.5 -1.8 1 0 0.6 -11.3 1 -31.8 1 l-31.9 0 -0.2 11 -0.2 11 52.8 0.1 c29 0 56.3 0 60.6 0 l7.7 -0.1 0 20 0 20 -87.7 0 c-57.1 0 -87.3 -0.4 -86.3 -1z m89.8 -62.7 c-1 -0.2 -2.6 -0.2 -3.5 0 -1 0.3 -0.2 0.5 1.7 0.5 1.9 0 2.7 -0.2 1.8 -0.5z m57 0 c-1 -0.2 -2.8 -0.2 -4 0 -1.3 0.2 -0.5 0.4 1.7 0.4 2.2 0.1 3.2 -0.1 2.3 -0.4z m-134 -94 c-1 -0.2 -2.6 -0.2 -3.5 0 -1 0.3 -0.2 0.5 1.7 0.5 1.9 0 2.7 -0.2 1.8 -0.5z m8 0 c-1 -0.2 -2.6 -0.2 -3.5 0 -1 0.3 -0.2 0.5 1.7 0.5 1.9 0 2.7 -0.2 1.8 -0.5z m44 0 c-3.2 -0.2 -8.6 -0.2 -12 0 -3.5 0.2 -0.9 0.3 5.7 0.3 6.6 0 9.4 -0.1 6.3 -0.3z m27 0 c-1.6 -0.2 -4 -0.2 -5.5 0 -1.6 0.2 -0.3 0.4 2.7 0.4 3 0 4.3 -0.2 2.8 -0.4z m15 0 c-2.1 -0.2 -5.5 -0.2 -7.5 0 -2.1 0.2 -0.4 0.4 3.7 0.4 4.1 0 5.8 -0.2 3.8 -0.4z m10 0 c-1 -0.2 -2.8 -0.2 -4 0 -1.3 0.2 -0.5 0.4 1.7 0.4 2.2 0.1 3.2 -0.1 2.3 -0.4z m20 0 c-3.2 -0.2 -8.6 -0.2 -12 0 -3.5 0.2 -0.9 0.3 5.7 0.3 6.6 0 9.4 -0.1 6.3 -0.3z m23 0 c-1.5 -0.2 -4.2 -0.2 -6 0 -1.8 0.2 -0.6 0.4 2.7 0.4 3.3 0 4.8 -0.2 3.3 -0.4z"/>
  <path d="M593.1 397.3 c1 -1.1 0.3 -2.4 -3.7 -6.4 -2.7 -2.7 -4.8 -5.3 -4.7 -5.7 0 -0.4 -0.3 -0.6 -0.7 -0.5 -0.5 0.2 -2 -1.1 -3.4 -2.8 -1.4 -1.7 -2.6 -2.7 -2.6 -2.3 0 0.5 -2.5 -1.6 -5.5 -4.6 -3 -2.9 -5.1 -5.8 -4.8 -6.3 0.3 -0.6 0.1 -0.7 -0.5 -0.3 -1.4 0.8 -25.4 -22.3 -24.5 -23.7 0.3 -0.5 0.1 -0.7 -0.5 -0.3 -1.4 0.9 -7.4 -4.3 -6.5 -5.7 0.3 -0.7 0.2 -0.9 -0.2 -0.4 -1 0.8 -8.7 -6.2 -8 -7.3 0.3 -0.4 -0.2 -1.3 -1 -2 -0.8 -0.7 -1.5 -0.9 -1.5 -0.4 0 0.4 -1.3 -0.5 -3 -2.1 -1.6 -1.5 -2.7 -3.3 -2.3 -3.8 0.3 -0.6 0.1 -0.7 -0.5 -0.3 -0.6 0.3 -1.3 0.2 -1.6 -0.3 -1.1 -1.8 4.5 -2 41.1 -1.8 l37.1 0.2 2.6 2.4 c1.4 1.3 2.3 2.8 2 3.3 -0.3 0.5 0.8 1.3 2.4 1.9 1.9 0.7 3.6 2.3 4.7 4.5 1 2.1 2.2 3.3 3 3.1 0.7 -0.3 2.8 1.1 4.6 3 1.9 2 2.8 3.2 2 2.8 -0.9 -0.5 -1.2 -0.3 -0.9 0.6 0.3 0.8 1.2 1.3 2.1 1.3 0.8 -0.1 3 1.4 4.9 3.4 1.8 1.9 2.7 3.2 2.1 2.8 -0.8 -0.4 -1.3 -0.1 -1.3 0.8 0 1 0.9 1.6 2.3 1.6 1.2 0 2.7 0.4 3.2 0.8 1.7 1.2 5.1 5.6 3.8 4.8 -0.8 -0.4 -1.3 -0.1 -1.3 0.8 0 1.1 0.9 1.6 3 1.6 2.3 0 3 0.5 3 1.9 0 1.4 -2.4 3.4 -8 6.7 -4.4 2.6 -8 5.2 -8 5.9 0 0.7 -5.5 6.4 -12.3 12.7 -9.5 8.9 -12.9 11.6 -15 11.6 -2.3 0 -2.5 -0.3 -1.6 -1.5z"/>
  <path d="M873.8 368.6 c-2 -1.2 -15.4 -6 -29.7 -10.6 -21.3 -7 -26.1 -8.8 -26.1 -10.3 0 -1 0.5 -1.5 1 -1.2 0.6 0.3 2.2 -0.3 3.8 -1.3 1.5 -1.1 3 -2 3.5 -2.1 0.4 -0.1 0.7 -0.4 0.6 -0.7 -0.2 -1.3 8.5 -9.3 9.4 -8.7 0.6 0.3 0.7 0.1 0.4 -0.4 -0.7 -1.2 1.6 -3.6 2.6 -2.8 0.4 0.3 0.5 0.2 0.2 -0.2 -0.3 -0.4 1.6 -2.8 4.2 -5.5 l4.7 -4.8 40.8 0 c22.4 0 40.8 0.4 40.8 0.8 0 1.2 -6.5 7.3 -7.2 6.7 -0.3 -0.3 -1.1 0.3 -1.9 1.2 -1.3 1.7 -1.3 1.7 0.6 0.3 1.5 -1.1 1.4 -0.8 -0.4 1.2 -1.3 1.5 -2.8 2.5 -3.4 2.1 -0.6 -0.3 -0.7 -0.2 -0.4 0.4 0.3 0.5 -7.5 9 -17.3 18.8 -9.9 9.8 -18 18.2 -18 18.7 0 1.5 -4.5 0.6 -8.2 -1.6z"/>
 </g>
 <g fill="#ef2a58">
  <path d="M640.7 619.3 c-0.9 -0.2 -1.5 -0.8 -1.2 -1.3 0.3 -0.4 -0.4 -0.6 -1.5 -0.3 -1.2 0.3 -2 0 -2 -0.6 0 -0.7 -0.4 -1 -0.9 -0.7 -0.5 0.4 -4.6 -0.4 -9.1 -1.6 -6.1 -1.6 -7.8 -2.4 -6.4 -3 1.2 -0.4 0.5 -0.5 -1.6 -0.2 -7.8 1.2 -20.9 -6.4 -24.9 -14.5 -2.1 -4.2 -6.7 -22.3 -7.5 -29.9 -0.4 -3 -1.1 -7.5 -1.7 -10 -0.5 -2.5 -0.8 -5.1 -0.5 -5.8 0.3 -0.7 0.1 -1.4 -0.3 -1.6 -1.1 -0.5 -13.4 -64.5 -12.7 -66.3 0.3 -0.9 0.2 -1.4 -0.2 -1.1 -0.5 0.3 -1.9 -5 -3.2 -11.7 -1.2 -6.7 -2.8 -15 -3.5 -18.4 -0.9 -4.5 -0.9 -6.5 -0.1 -7.3 0.8 -0.8 0.7 -1.3 -0.2 -1.9 -1.6 -1 -3.3 -7.9 -2.6 -10.3 0.3 -1 1.1 -1.8 1.8 -1.8 1.2 0 3.6 5.4 3.6 8.3 0 1.2 0.8 1.7 2.6 1.7 1.7 0 2.8 0.6 3.1 2 0.3 1.2 1.4 2 2.7 2 2.4 0 14.9 5 15.4 6.2 0.2 0.5 1.2 0.8 2.3 0.8 2.1 0 10.1 3 10.9 4 0.3 0.4 2.2 1 4.3 1.4 2 0.4 3.7 1 3.7 1.4 0 0.4 2.4 1.3 5.3 2 2.8 0.7 5.4 1.7 5.5 2.2 0.2 0.6 1.3 1 2.5 1 5.2 0 6.7 1.1 6.7 4.7 l0 3.6 -4.7 -0.6 c-2.6 -0.3 -4.9 -1 -5.1 -1.6 -0.2 -0.6 -1.3 -1.1 -2.4 -1.1 -3 0 -9.8 -2.2 -9.8 -3.2 0 -0.4 -1.1 -0.8 -2.5 -0.8 -2.2 0 -2.5 0.4 -2.5 3.5 0 4.6 2 8.4 6.5 12.3 5.1 4.5 9.5 6.6 30.8 14.3 10.5 3.8 20.1 7.6 21.4 8.4 5.5 3.7 8.1 12.6 4.8 17.1 -1.7 2.5 -8.6 5.4 -21.1 8.8 -14.2 4 -25.1 8.5 -27.4 11.3 -3.9 4.9 -4.5 9.4 -3.2 22.7 1.4 13.8 3.5 22.8 6.3 26.7 2.5 3.5 13.2 12 18.6 14.7 2.2 1.2 5.5 3.4 7.3 5 2.6 2.4 3.1 3.6 2.8 6.3 -0.3 3.2 -0.5 3.4 -4.3 3.6 -2.2 0 -4.8 -0.1 -5.8 -0.4z"/>
  <path d="M836.2 599.9 c0.3 -3 0.7 -3.4 3.6 -3.7 2.8 -0.3 3.2 -0.7 3.2 -3.3 0 -2.7 0.3 -2.9 3.6 -2.9 l3.7 0 -5.5 5.3 c-9.1 8.7 -9 8.6 -8.6 4.6z"/>
  <path d="M710 494.5 c0 -3.4 0.1 -3.5 4 -3.5 3.9 0 4 0.1 4 3.5 0 3.4 -0.1 3.5 -4 3.5 -3.9 0 -4 -0.1 -4 -3.5z"/>
  <path d="M698.3 495.3 c-1.3 -0.2 -2.3 -0.9 -2.3 -1.4 0 -0.5 -1.6 -0.9 -3.5 -0.9 -3.3 0 -3.5 -0.2 -3.5 -3.5 0 -3.3 0.2 -3.5 3.5 -3.5 1.9 0 3.5 0.5 3.5 1 0 0.6 1.1 1 2.4 1 1.3 0 3.8 0.3 5.5 0.6 2.7 0.6 3.1 1 3.1 4 0 3.2 -0.2 3.4 -3.2 3.3 -1.8 -0.1 -4.3 -0.4 -5.5 -0.6z"/>
  <path d="M750 487.5 c0 -2.4 0.5 -3.5 1.5 -3.5 0.8 0 1.5 -0.4 1.5 -1 0 -0.5 1.6 -1 3.5 -1 3.3 0 3.5 0.2 3.5 3.5 0 2.4 -0.5 3.5 -1.5 3.5 -0.8 0 -1.5 0.5 -1.5 1 0 0.6 -1.6 1 -3.5 1 -3.3 0 -3.5 -0.2 -3.5 -3.5z"/>
  <path d="M677.8 489.3 c-1.3 -0.3 -1.8 -1.5 -1.8 -3.9 0 -3 0.3 -3.4 2.8 -3.4 5.7 0 7.2 1 7.2 4.6 0 3.2 -0.2 3.4 -3.2 3.3 -1.8 -0.1 -4.1 -0.3 -5 -0.6z"/>
  <path d="M666 482.5 c0 -3.3 0.2 -3.5 3.5 -3.5 3.3 0 3.5 0.2 3.5 3.5 0 3.3 -0.2 3.5 -3.5 3.5 -3.3 0 -3.5 -0.2 -3.5 -3.5z"/>
  <path d="M655 478.5 c0 -3.3 0.2 -3.5 3.5 -3.5 3.3 0 3.5 0.2 3.5 3.5 0 3.3 -0.2 3.5 -3.5 3.5 -3.3 0 -3.5 -0.2 -3.5 -3.5z"/>
  <path d="M762 478.7 c0 -3.7 1.2 -4.7 5.6 -4.7 2.3 0 2.5 0.3 2.2 3.8 -0.3 3.5 -0.5 3.7 -4 4 -3.7 0.3 -3.8 0.2 -3.8 -3.1z"/>
  <path d="M640 476 c0 -0.5 -1.3 -1 -3 -1 -2.8 0 -3 -0.3 -3 -3.5 0 -3.3 0.2 -3.5 3.5 -3.5 1.9 0 3.5 0.5 3.5 1 0 0.6 1.4 1 3 1 2.8 0 3 0.3 3 3.5 0 3.3 -0.2 3.5 -3.5 3.5 -1.9 0 -3.5 -0.4 -3.5 -1z"/>
 </g>
 <g fill="#ff3c58">
  <path d="M769 655.8 c-6.8 -1.2 -32.5 -9 -32.8 -9.9 -0.2 -0.4 -1 -0.5 -1.9 -0.2 -1.1 0.4 -1.4 0.2 -0.9 -0.5 0.5 -0.8 0.2 -1 -0.8 -0.6 -0.8 0.3 -4.1 -0.2 -7.2 -1.1 -4.3 -1.2 -5.4 -1.9 -4.3 -2.6 1 -0.7 0.4 -0.9 -2.1 -0.7 -4.4 0.2 -14 -2.1 -14 -3.4 0 -0.5 -0.4 -0.7 -0.9 -0.3 -1.5 0.9 -13.1 -2.7 -12.4 -3.8 0.4 -0.6 0.1 -0.7 -0.6 -0.3 -1.5 0.9 -21.2 -4.4 -20.6 -5.5 0.3 -0.4 -0.5 -0.5 -1.7 -0.1 -1.4 0.3 -1.9 0.1 -1.4 -0.6 0.3 -0.6 0.1 -1.4 -0.5 -1.8 -0.8 -0.4 -0.9 -0.3 -0.5 0.4 0.4 0.7 0.1 1.2 -0.8 1.2 -0.9 0 -1.6 -0.5 -1.6 -1.1 0 -0.6 -0.6 -0.9 -1.4 -0.6 -2.1 0.8 -9.7 -1.4 -8.9 -2.6 0.4 -0.6 0.1 -0.7 -0.6 -0.3 -1.5 0.9 -14.2 -2.3 -13.6 -3.4 0.3 -0.5 -0.4 -0.6 -1.5 -0.3 -1.2 0.3 -2 0 -2 -0.6 0 -0.7 -0.4 -1 -0.9 -0.6 -0.6 0.3 -4.2 -0.4 -8.2 -1.5 -7.5 -2 -11 -3.9 -4.9 -2.5 1.9 0.4 4.7 0.9 6.1 1 1.4 0.1 3 0.4 3.5 0.7 0.5 0.3 2.9 0.9 5.4 1.3 2.5 0.4 5.5 0.9 6.8 1.1 1.3 0.3 2.8 0.2 3.3 -0.2 1.4 -0.8 -4.1 -5.9 -9.4 -8.6 -5.4 -2.7 -16.1 -11.2 -18.6 -14.7 -3.7 -5.2 -7.1 -24.5 -7.1 -40.1 0 -8.5 2.3 -14.9 6.2 -17.4 3.2 -2.1 16.7 -6.9 26.8 -9.6 11.1 -3 18.6 -6.3 20 -8.9 1.3 -2.5 0.2 -5 -3.8 -9.3 l-2.6 -2.8 3.7 0 c2 0 3.7 0.5 3.7 1.1 0 0.6 0.7 1.7 1.5 2.5 1 1 1.5 3.5 1.5 7 0 3.9 0.4 5.4 1.4 5.4 1.6 0 2.6 2.1 2.6 5.6 0 1.9 0.5 2.4 2.5 2.4 2 0 2.5 0.5 2.5 2.5 0 2.7 3.1 6.5 5.4 6.5 0.8 0 1.7 1.3 2.1 3 0.4 1.7 1.3 3 2 3 0.8 0 1.9 0.9 2.5 2 0.6 1.1 1.7 2 2.5 2 0.8 0 1.7 1.1 2.1 2.5 0.3 1.4 1 2.5 1.5 2.5 0.5 0 1.5 1.4 2.4 3 0.9 1.7 2.2 3 3 3 0.8 0 1.5 0.5 1.5 1 0 0.6 0.6 1 1.4 1 0.7 0 1.6 0.9 1.9 2 0.3 1.2 1.4 2 2.6 2 1.2 0 2.1 0.5 2.1 1 0 0.6 0.9 1.9 2 3 1.1 1.1 2 3.1 2 4.5 0 1.4 0.7 2.8 1.6 3.2 0.9 0.3 2.8 1.7 4.2 2.9 1.4 1.3 3.3 2.4 4.3 2.4 1.1 0 1.9 0.5 1.9 1 0 0.6 0.6 1 1.3 1 0.8 0 2 1.1 2.7 2.5 1 1.9 2.1 2.5 4.7 2.5 2.3 0 3.3 0.5 3.3 1.5 0 0.8 0.9 1.5 1.9 1.5 1.1 0 2.3 0.9 2.6 2 0.3 1.1 1.2 2 1.8 2 2.7 0 8.7 2.2 8.7 3.1 0 0.6 0.6 1.7 1.4 2.5 2.1 2 2.5 0.2 1.8 -7.8 l-0.5 -6.8 3.5 0 3.5 0 2.7 10.3 c5.9 23.1 10.6 57.6 7.9 59 -0.5 0.2 -2.8 0 -5.3 -0.5z"/>
  <path d="M595.5 600.4 c-2.4 -3.7 -1.3 -4 1.4 -0.4 1.2 1.7 1.7 3 1.2 3 -0.5 0 -1.6 -1.2 -2.6 -2.6z"/>
  <path d="M591.4 592.2 c0 -0.9 -0.4 -2.8 -0.8 -4.1 -0.6 -1.7 -0.5 -2.2 0.5 -1.9 1.9 0.6 3 5.5 1.5 6.7 -0.8 0.7 -1.2 0.5 -1.2 -0.7z"/>
  <path d="M586.3 568.7 c-0.1 -2.8 -0.9 -7.7 -1.8 -10.7 -0.8 -3 -1.3 -6.1 -1 -6.7 0.2 -0.7 0.1 -1.3 -0.4 -1.3 -0.5 0 -1.1 -1.9 -1.5 -4.2 -0.9 -5.9 -1.7 -9.9 -7.1 -36.7 -2.5 -12.9 -4.4 -24.3 -4.2 -25.3 0.3 -1 0.2 -1.6 -0.2 -1.3 -0.4 0.2 -1.3 -2.4 -2 -5.8 -1.6 -8.7 -7.1 -38.1 -7.1 -38.4 0 -0.2 1.3 -0.3 2.9 -0.3 2.2 0 3.7 0.9 5.7 3.5 1.4 1.9 3.5 3.5 4.6 3.5 1.1 0 2.6 0.7 3.4 1.5 0.9 0.8 2.6 1.5 4 1.5 1.3 0 2.4 0.4 2.4 0.9 0 1 7.8 4.1 10.4 4.1 0.9 0 2.4 0.7 3.2 1.5 0.9 0.8 2.8 1.5 4.3 1.5 l2.8 0 -0.1 8.4 c-0.1 7.3 0.2 8.8 2.2 11.5 1.2 1.6 2.2 3.7 2.2 4.6 0 0.8 0.9 1.5 1.9 1.5 1.1 0 2.1 0.4 2.3 0.8 0.4 1.2 14.7 7.1 30.6 12.8 11.8 4.2 13.2 5 13.2 7.1 0 2.2 -0.1 2.3 -3.7 0.8 -2.1 -0.8 -10.6 -3.9 -18.9 -6.9 -17.4 -6.2 -22 -8.4 -26.9 -12.8 -5 -4.3 -6.4 -7.5 -6.8 -15.4 -0.3 -6.3 -0.5 -6.9 -3.3 -8.5 -1.6 -0.9 -3.3 -1.4 -3.7 -1.2 -0.4 0.3 -1.5 -0.1 -2.3 -0.8 -0.8 -0.7 -2.7 -1.4 -4.2 -1.5 -1.5 -0.2 -2.8 -0.8 -3 -1.4 -0.2 -0.5 -1.2 -1 -2.3 -1 -1 0 -1.9 -0.4 -1.9 -0.8 0 -0.4 -2.4 -1.6 -5.2 -2.6 -2.9 -1.1 -6.3 -2.8 -7.4 -3.8 -2.9 -2.6 -3.8 -0.9 -1.9 3.6 0.8 2 1.3 3.6 1.1 3.6 -0.3 0 0.1 1.5 0.8 3.3 0.8 1.7 1.7 5.7 2.1 8.7 0.3 3 1.9 11.6 3.5 19 1.6 7.4 4.3 21.2 6 30.5 1.7 9.4 3.6 19.4 4.1 22.2 0.6 2.9 0.8 5.7 0.4 6.3 -0.3 0.5 -0.2 1 0.3 1 1 0 3.9 16.4 4.1 23.8 0.1 2.8 -0.2 5.2 -0.6 5.2 -0.4 0 -0.9 -2.4 -1 -5.3z"/>
  <path d="M740 492.5 c0 -3.3 0.2 -3.5 3.5 -3.5 3.3 0 3.5 0.2 3.5 3.5 0 3.3 -0.2 3.5 -3.5 3.5 -3.3 0 -3.5 -0.2 -3.5 -3.5z"/>
  <path d="M692.2 490.5 c0.1 -3.3 0.3 -3.5 3.5 -3.5 3.1 0 3.3 0.2 3.3 3.5 0 3.3 -0.2 3.5 -3.5 3.5 -3.3 0 -3.4 -0.1 -3.3 -3.5z"/>
  <path d="M617 466.5 c0 -3.3 0.2 -3.5 3.5 -3.5 3.3 0 3.5 0.2 3.5 3.5 0 3.3 -0.2 3.5 -3.5 3.5 -3.3 0 -3.5 -0.2 -3.5 -3.5z"/>
  <path d="M606 462.5 c0 -3.3 0.2 -3.5 3.5 -3.5 3.3 0 3.4 0.1 3.3 3.5 -0.1 3.3 -0.3 3.5 -3.5 3.5 -3.1 0 -3.3 -0.2 -3.3 -3.5z"/>
 </g>
 <g fill="#ff4d57">
  <path d="M766.9 655.3 c-3.6 -0.7 -8.4 -2 -10.5 -2.8 l-3.9 -1.5 3.5 0.6 c1.9 0.4 6 1.2 9 1.9 3 0.7 5.7 1.1 5.9 0.8 2.3 -1.9 -2 -32.5 -7.6 -54.1 -2.9 -11.3 -4.1 -12.9 -2.3 -3.2 0.9 5.1 0.9 6.5 -0.2 7.1 -0.7 0.5 -0.9 0.9 -0.5 0.9 0.4 0 0.2 0.6 -0.5 1.4 -0.8 0.8 -1.9 1.1 -2.8 0.6 -0.8 -0.4 -2.1 -0.5 -2.7 -0.3 -0.7 0.3 -1.3 -0.2 -1.3 -1.1 0 -0.9 -0.4 -1.6 -1 -1.6 -0.5 0 -1 -0.6 -1 -1.4 0 -1.5 -2.7 -2.9 -4 -2.1 -0.5 0.3 -1.1 0.1 -1.5 -0.5 -0.3 -0.5 -1.5 -1 -2.5 -1 -1 0 -2.2 -1 -2.5 -2.1 -0.6 -1.7 -0.9 -1.9 -1.6 -0.8 -0.7 1.1 -0.9 1.1 -0.9 0.1 0 -0.7 -0.4 -1 -1 -0.7 -0.5 0.3 -1 -0.3 -1 -1.4 0 -1.3 -0.7 -2.1 -1.6 -2.1 -1 0 -1.4 0.6 -1 1.5 0.3 0.8 0.1 1.5 -0.4 1.5 -0.6 0 -1 -0.7 -1 -1.5 0 -0.8 -0.9 -1.5 -2.1 -1.5 -1.1 0 -1.7 -0.5 -1.4 -1 0.3 -0.6 -0.5 -1.4 -1.9 -2 -1.4 -0.5 -2.6 -1.7 -2.6 -2.7 0 -1.5 -0.2 -1.6 -1 -0.3 -0.8 1.2 -1 1.2 -1 0.1 0 -0.8 -0.3 -1.2 -0.6 -0.8 -0.3 0.3 -1.8 -0.7 -3.3 -2.2 -1.5 -1.5 -3.4 -3 -4.4 -3.4 -1 -0.4 -1.7 -1.7 -1.7 -3.2 0 -1.4 -0.4 -2.5 -1 -2.5 -0.5 0 -0.9 -0.5 -0.7 -1.2 0.1 -0.7 -0.5 -1.2 -1.3 -1.3 -0.9 0 -1.4 -0.8 -1.2 -1.8 0.2 -1 -0.3 -1.7 -1.3 -1.7 -0.8 0 -1.5 0.6 -1.6 1.3 0 0.6 -0.5 0.1 -1.1 -1.3 -0.6 -1.4 -1 -2.8 -1 -3.2 0.1 -0.5 -0.5 -0.8 -1.3 -0.8 -0.8 0 -1.5 -0.5 -1.5 -1.1 0 -0.6 -0.6 -0.9 -1.4 -0.6 -0.9 0.4 -1.9 -0.5 -2.6 -2.4 -0.7 -1.6 -2.1 -3.4 -3.2 -4 -1 -0.5 -1.6 -1.4 -1.3 -2 0.4 -0.5 0 -0.9 -0.7 -0.9 -1.7 0 -4.9 -3.6 -4 -4.5 0.3 -0.3 -0.4 -0.8 -1.6 -1.2 -1.2 -0.3 -2.2 -1.2 -2.2 -1.9 0 -0.8 -0.7 -1.4 -1.6 -1.4 -1.3 0 -1.4 -0.3 -0.5 -1.3 0.8 -1 0.7 -1.4 -0.4 -1.4 -0.8 0 -1.5 0.4 -1.5 0.9 0 0.4 -0.5 0.8 -1.1 0.8 -0.6 0 -0.8 -0.9 -0.4 -2.1 0.5 -1.5 0.2 -2.2 -1.4 -2.6 -1.1 -0.3 -1.8 -0.9 -1.5 -1.4 0.3 -0.5 -0.2 -1.2 -1.1 -1.5 -1.4 -0.6 -1.4 -0.8 0 -1.8 1.3 -0.9 1 -1.1 -1.5 -1.3 -3.2 -0.2 -9.6 -4.3 -6.7 -4.3 0.8 0 1.7 0.3 2 0.8 0.2 0.4 0.2 0.1 0 -0.7 -0.2 -0.7 0.2 -2 0.8 -2.7 0.9 -1.1 0.7 -1.4 -0.7 -1.5 -1.1 -0.1 -2.3 -0.1 -2.7 0 -0.5 0.1 -0.6 -0.3 -0.3 -0.8 0.4 -0.5 0.2 -1.2 -0.4 -1.6 -0.5 -0.3 -1 -0.1 -1 0.4 0 0.6 -0.9 1.1 -2.1 1.1 -1.1 0 -2.9 0.5 -4 1 -1 0.6 -1.9 0.7 -1.9 0.2 0 -0.5 2.1 -1.7 4.6 -2.7 6 -2.3 7.5 -5.3 5 -10 -2.4 -4.3 -8.7 -7.5 -30.6 -15.5 -19.7 -7.2 -25.6 -10.4 -29.5 -16 -2.4 -3.4 -3 -5.5 -3.3 -10.9 -0.2 -3.6 -0.6 -7.3 -0.9 -8.1 -0.4 -0.8 -0.5 -1.9 -0.4 -2.3 0.1 -0.5 -0.3 -0.6 -0.9 -0.2 -1.5 1 -5.1 -0.5 -4.4 -1.7 0.5 -0.7 0.1 -0.9 -0.9 -0.5 -1 0.3 -1.7 0.2 -1.7 -0.4 0 -0.6 -0.5 -0.7 -1 -0.4 -1.5 0.9 -5.1 -0.5 -4.4 -1.7 0.4 -0.7 0.2 -0.8 -0.5 -0.4 -1.6 1 -5.3 -0.3 -4.5 -1.6 0.5 -0.7 0.1 -0.9 -0.9 -0.5 -1.9 0.7 -6.9 -1.2 -6.2 -2.3 0.3 -0.4 -0.7 -0.8 -2.1 -0.8 -1.4 0 -3.3 -0.7 -4.2 -1.7 -1.3 -1.4 -1.4 -1.6 -0.2 -1.1 0.8 0.4 0.2 -0.3 -1.5 -1.6 -1.6 -1.3 -3.4 -2.3 -4 -2.3 -0.5 0 -1.1 -1.5 -1.2 -3.3 -0.1 -2.5 0.3 -3.2 1.7 -3.2 1.9 0 3 1.9 3 5.1 0 1.2 0.7 1.9 2 1.9 1.1 0 4.5 1.3 7.7 2.9 3.2 1.6 8.7 4.1 12.3 5.4 18.3 6.8 21.6 8.1 22.1 9 0.4 0.5 2.8 1.3 5.5 1.8 2.7 0.5 5.1 1.4 5.2 1.9 0.2 0.6 1.7 1 3.3 1 1.6 0 2.9 0.5 2.9 1 0 0.6 1.3 1 2.9 1 3.5 0 9.1 1.9 10.9 3.7 0.7 0.7 2.5 1.3 3.9 1.3 3.8 0 13.3 3.2 13.3 4.4 0 0.6 1.9 1.7 4.1 2.4 2.3 0.7 5 2.3 6 3.5 1.4 1.6 1.7 1.7 1.3 0.4 -0.5 -1.4 0 -1.7 3 -1.7 3.2 0 3.6 0.3 3.6 2.6 0 1.9 0.8 2.8 3.5 4 4.4 1.8 5.5 1.8 5.5 -0.1 0 -1 1.1 -1.5 3.5 -1.5 3.3 0 3.5 0.2 3.5 3.5 0 3.4 0.2 3.6 9.3 8.1 5 2.6 13.1 5.9 17.8 7.4 8.6 2.7 22.2 10.7 26 15.4 2.9 3.4 5.9 12.3 8.4 24.9 1.4 6.5 4.1 17.7 6 25 7.8 28.4 9.5 35.8 12.4 51.7 1.7 9.1 3.5 18.1 4.1 20 0.5 1.9 1 4.9 1 6.7 0 2.7 0.4 3.2 3 3.8 5 1.1 3.6 3.3 -3 4.5 -1.9 0.4 -6.5 0.1 -10.1 -0.7z"/>
  <path d="M747.5 650 c-1.3 -0.5 -1.4 -0.9 -0.5 -0.9 0.8 0 2.4 0.4 3.5 0.9 1.3 0.5 1.4 0.9 0.5 0.9 -0.8 0 -2.4 -0.4 -3.5 -0.9z"/>
  <path d="M739.5 647.5 c-4 -1.4 -4 -1.4 -0.5 -0.9 1.9 0.4 3.9 1 4.5 1.5 1.1 1.1 1 1.1 -4 -0.6z"/>
  <path d="M705 493.5 c0 -3.3 0.2 -3.5 3.5 -3.5 3.3 0 3.5 0.2 3.5 3.5 0 3.3 -0.2 3.5 -3.5 3.5 -3.3 0 -3.5 -0.2 -3.5 -3.5z"/>
  <path d="M756.2 483.5 c-0.2 -3.1 0 -3.5 2.3 -3.5 1.8 0 2.5 -0.5 2.5 -2 0 -1.6 0.7 -2 3.5 -2 3.3 0 3.5 0.2 3.5 3.5 0 3.1 -0.3 3.5 -2.5 3.5 -1.8 0 -2.5 0.5 -2.5 2 0 1.6 -0.7 2 -3.3 2 -3.1 0 -3.3 -0.3 -3.5 -3.5z"/>
 </g>
 <g fill="#7838f5">
  <path d="M706.7 496.4 c-10.2 -1.9 -40.9 -11.1 -42.2 -12.7 -1.1 -1.4 -4.2 -2.7 -11.5 -4.8 -2.5 -0.7 -4.9 -1.6 -5.4 -2.1 -0.6 -0.4 -1.7 -0.8 -2.6 -0.8 -2.5 0 -9.2 -3.7 -7.8 -4.4 0.7 -0.3 0.1 -0.3 -1.4 0 -3.3 0.7 -21.7 -5.2 -22.5 -7.2 -0.3 -0.8 -0.9 -1.1 -1.4 -0.8 -1.4 0.8 -5 -0.6 -4.3 -1.8 0.4 -0.6 -0.1 -0.8 -1.6 -0.3 -1.7 0.5 -2.1 0.4 -1.5 -0.6 0.6 -0.9 0.4 -1.1 -0.8 -0.6 -0.9 0.3 -1.7 0.2 -1.9 -0.2 -0.2 -0.5 -7.3 -3.6 -15.8 -7 -16.6 -6.6 -22 -10.1 -24.4 -16.1 -1.2 -3 -1.2 -4.1 -0.1 -7.4 1.5 -4.3 11.3 -14.9 12.8 -13.9 0.6 0.3 0.7 0.1 0.4 -0.5 -0.9 -1.3 8.7 -9.4 9.9 -8.4 0.5 0.4 0.6 0.3 0.1 -0.2 -0.7 -0.9 3.9 -6.6 5.3 -6.6 0.3 0 4.9 -4.3 10.2 -9.5 8.1 -8 10.1 -9.5 12.9 -9.6 2.8 -0.1 3 -0.2 1.1 -0.7 -2.3 -0.7 -2.3 -0.7 1.2 -4.1 2 -1.9 3.6 -4.1 3.6 -4.8 0 -0.7 0.7 -1.3 1.5 -1.3 1 0 1.5 1.1 1.5 3.5 0 1.9 0.5 3.5 1 3.5 0.6 0 1 1.5 1 3.4 0 5.2 0.9 6.6 4.1 6.6 2 0 2.9 0.5 2.9 1.6 0 1.2 0.8 1.4 4.4 0.9 5.1 -0.8 8.6 0 8.6 2.1 0 1.4 2.5 1.8 10.3 1.4 3.1 -0.1 3.7 0.2 3.7 1.9 0 2 0.6 2.1 8.5 2.1 7.8 0 8.5 0.2 8.5 2 0 1.1 0.6 2 1.4 2 2.5 0 4.6 -1.2 4.6 -2.6 0 -0.9 1.2 -1.4 3.5 -1.4 2.8 0 3.5 0.4 3.5 2 0 1.6 0.7 2 3.8 2 2.7 0 4.1 0.6 5 2 1 1.7 1.9 2 4.7 1.4 4.9 -0.9 8.5 0.2 8.5 2.6 0 1.8 0.7 2 5.9 2 5.9 0 6 0.1 7.2 3.4 1 2.9 1.8 3.5 5.1 4 2.1 0.3 3.8 1.1 3.8 1.6 0 0.6 0.6 1 1.4 1 1.8 0 3 6.7 2.1 12.1 -0.7 3.8 -0.6 4.1 1.3 3.5 3.7 -1.2 13.6 -2.6 18.5 -2.6 l4.7 0 0 3.5 c0 3.2 -0.3 3.5 -2.8 3.5 -4.4 0 -26.1 5.6 -33.7 8.7 -3.8 1.6 -9.5 4.5 -12.5 6.4 -9 5.8 -20.5 16.6 -23.5 22 -1.5 2.8 -2.5 5.2 -2.3 5.3 0.7 0.6 13.5 4.5 19.8 6 23.1 5.5 35.1 3.5 51.8 -8.9 3.3 -2.4 6.3 -4.2 6.6 -3.9 0.3 0.2 0.4 0.1 0.1 -0.3 -0.3 -0.4 1.4 -2.6 3.7 -5 3.3 -3.3 4.9 -4.3 7.5 -4.3 3.1 0 3.3 0.2 3.3 3.3 0 2.7 -1 4.3 -5.7 8.8 -11.3 10.9 -21.1 16.9 -31.3 19.3 -8 1.9 -23.7 1.9 -34.3 0z"/>
  <path d="M624 368.3 c0 -0.8 8.2 -6.3 9.4 -6.3 0.3 0 0.6 1.1 0.6 2.5 0 1.6 -0.6 2.5 -1.5 2.5 -0.8 0 -1.5 0.5 -1.5 1 0 0.6 -1.6 1 -3.5 1 -1.9 0 -3.5 -0.3 -3.5 -0.7z"/>
  <path d="M641.1 356.3 c0.7 -1 2.7 -3 4.4 -4.6 l3 -2.7 0.3 2.4 c0.4 3.4 -2.6 6.6 -6.1 6.6 -2.6 0 -2.8 -0.2 -1.6 -1.7z"/>
  <path d="M658.2 339.3 c2.4 -2.4 5.1 -4.8 6.1 -5.3 1.5 -0.9 1.7 -0.7 1.7 2 0 1.8 -0.5 3 -1.3 3 -0.8 0 -1.9 1.1 -2.5 2.5 -1 2.1 -1.8 2.5 -4.8 2.3 l-3.5 -0.2 4.3 -4.3z"/>
 </g>
 <g fill="#ff7254">
  <path d="M775.3 654 c-2.4 -1 -4.4 -6.1 -2.5 -6.8 0.7 -0.2 0.7 -1.3 0.1 -3.5 -0.5 -1.8 -2.3 -10.6 -4 -19.7 -2.9 -15.9 -4.6 -23.3 -12.4 -51.7 -1.9 -7.3 -4.6 -18.5 -6 -25 -2.5 -12.6 -5.5 -21.5 -8.4 -24.9 -3.8 -4.7 -17.4 -12.7 -26 -15.4 -4.7 -1.5 -14.4 -5.6 -21.6 -9.2 -7.1 -3.6 -16.1 -7.6 -20 -8.8 -3.8 -1.2 -7.9 -3.2 -9 -4.4 -2.1 -2.2 -4.8 -3.4 -12.5 -5.7 -2.5 -0.7 -4.9 -1.6 -5.5 -2.1 -0.5 -0.4 -1.6 -0.8 -2.5 -0.8 -0.9 0 -3.3 -0.9 -5.5 -2 -2.2 -1.1 -4.6 -2 -5.5 -2 -2.3 0 -19.2 -5.8 -20.4 -7 -0.6 -0.6 0.8 -0.4 3.2 0.4 2.3 0.8 4.2 1.3 4.2 0.9 0 -0.3 0.6 -0.1 1.3 0.5 0.6 0.5 2.8 1.3 4.7 1.8 4.9 1.1 4.9 1.1 5.5 1.4 0.3 0.1 0.8 0.3 1.3 0.5 0.8 0.2 2.3 0.7 7.2 2.4 1.9 0.7 4.2 1.4 5 1.6 0.8 0.2 1.6 0.4 1.8 0.5 0.1 0.2 0.7 0.4 1.2 0.5 0.6 0.1 1.2 0.4 1.5 0.5 0.3 0.1 1 0.4 1.5 0.5 0.6 0.1 1.2 0.4 1.5 0.5 0.3 0.1 0.8 0.3 1.3 0.4 4.3 1.1 13 4 14 4.8 0.6 0.6 1.2 0.7 1.2 0.3 0 -0.4 0.7 -0.2 1.5 0.5 0.8 0.7 1.5 1 1.5 0.6 0 -0.3 1.6 0.1 3.7 0.9 2 0.8 5 1.8 6.6 2.1 1.7 0.2 3.5 0.8 4.1 1.2 0.6 0.3 1.6 0.8 2.1 0.9 0.6 0.1 1.9 0.4 3 0.7 1.1 0.2 2 0.5 2 0.6 0 0.1 0.7 0.3 1.5 0.5 0.8 0.2 2.6 0.7 4 1 8.2 2 11.5 2.5 19.5 3.1 9.8 0.6 11.5 1.1 11.5 3.3 0 1 0.8 2.5 1.8 3.5 1.1 0.9 3.1 4.1 4.7 7.1 1.5 3.1 3.7 6.3 4.9 7.3 4.9 3.9 9.1 13.6 11.1 25.5 0.5 3.1 1 3.7 3 3.7 1.4 0 2.5 0.5 2.5 1 0 0.6 0.6 1 1.3 1 0.6 0 2.8 2.3 4.7 5 1.9 2.7 4.1 5 4.8 5 0.6 0 1.2 0.7 1.2 1.6 0 0.8 5.4 7 12 13.6 6.6 6.6 12 12.2 12 12.5 0 0.2 1 1.4 2.3 2.7 1.2 1.3 3.5 3.9 5.2 5.9 1.6 2.1 3.3 3.7 3.6 3.7 1 0 7.9 6.5 7.9 7.5 0 2 6.1 6.5 8.9 6.5 1.7 0 3.2 0.4 3.6 0.9 0.7 1.2 -5 5.3 -6 4.3 -0.5 -0.4 -0.5 -0.2 -0.2 0.4 0.6 1 -16.1 18.5 -17.9 18.8 -0.5 0 -0.8 0.4 -0.7 0.7 0.1 0.3 -2.4 3 -5.5 6 -14.2 13.4 -15.4 14.1 -20.9 11.9z"/>
  <path d="M745 492.7 c0 -1.3 6.7 -5.2 8.3 -4.9 0.4 0.1 0.7 -0.2 0.7 -0.8 0 -0.6 0.7 -1 1.5 -1 0.8 0 1.5 -0.5 1.5 -1 0 -0.7 -0.6 -0.7 -1.9 0 -2.6 1.4 -3.1 1.3 -3.1 -0.5 0 -1.2 0.9 -1.5 3.5 -1.3 3.2 0.2 3.5 0.4 3.5 3.5 0 3.1 -0.2 3.3 -3.5 3.3 -2.8 0 -3.5 0.4 -3.5 2 0 1.6 -0.7 2 -3.5 2 -2.2 0 -3.5 -0.5 -3.5 -1.3z"/>
  <path d="M700.5 490 c-1.6 -0.7 -1.3 -0.9 1.8 -0.9 2 -0.1 3.7 0.4 3.7 0.9 0 1.2 -2.7 1.2 -5.5 0z"/>
  <path d="M745 488.5 c0 -1 1 -1.5 3.3 -1.5 l3.2 0.1 -2.5 1.4 c-3.2 1.8 -4 1.8 -4 0z"/>
  <path d="M687.2 486.3 c-4 -1.4 -7.1 -2.7 -6.8 -3 0.8 -0.8 8.6 0.8 8.6 1.8 0 0.5 1.4 0.9 3 0.9 2 0 3 0.5 3 1.5 0 0.8 -0.1 1.5 -0.2 1.4 -0.2 0 -3.6 -1.2 -7.6 -2.6z"/>
  <path d="M608 463 c-1.2 -0.8 -1 -0.9 0.7 -0.7 1.2 0.2 2.6 0.6 2.9 1 1.1 1.1 -1.9 0.8 -3.6 -0.3z"/>
 </g>
 <g fill="#8c45fc">
  <path d="M715.5 496.4 c-14.2 -1.3 -16.9 -2 -27.2 -6.5 -2.4 -1.1 -4.8 -1.9 -5.5 -1.9 -2.6 0 -13.7 -4.4 -13.2 -5.2 0.3 -0.5 1.2 -0.4 2 0.3 0.8 0.6 1.4 0.8 1.4 0.4 0 -0.4 0.7 -0.2 1.5 0.5 0.8 0.7 1.5 1 1.5 0.6 0 -0.4 1.4 0.1 3.1 0.9 1.7 0.9 3.3 1.4 3.7 1.1 0.3 -0.3 1.1 -0.1 1.9 0.5 0.7 0.6 1.3 0.8 1.3 0.4 0 -0.4 0.7 -0.2 1.5 0.5 0.8 0.7 1.5 0.9 1.5 0.5 0 -0.4 0.6 -0.2 1.4 0.4 0.8 0.6 1.8 1.1 2.2 1 0.5 -0.1 1.1 0 1.4 0.1 0.6 0.2 2.8 0.8 5.5 1.4 1.1 0.2 2 0.5 2 0.7 0 0.1 0.9 0.3 2 0.4 1.1 0.2 3.6 0.6 5.5 1 8 1.4 20.5 1.6 26.8 0.4 3.7 -0.7 6.9 -1.3 7.2 -1.4 0.3 0 1.5 -0.6 2.8 -1.3 1.2 -0.7 2.2 -1 2.2 -0.7 0 0.3 1 -0.3 2.2 -1.4 1.1 -1.1 2.5 -1.8 3 -1.5 0.4 0.3 0.8 0 0.8 -0.6 0 -0.6 0.4 -0.9 0.9 -0.5 0.6 0.3 1.5 -0.4 2.1 -1.5 0.8 -1.6 -0.1 -1.3 -4.7 1.5 -15.7 9.6 -34.7 9.5 -64.5 -0.1 l-7.7 -2.5 1.5 -4.1 c2.6 -7.4 5.7 -11.7 13.3 -18.4 13.9 -12.3 23.6 -17.2 44.1 -22.5 6.3 -1.6 9.5 -2.7 7 -2.4 -2.5 0.3 -7.1 1.1 -10.2 1.9 -5 1.2 -5.9 1.2 -6.9 -0.1 -1 -1.1 -1 -1.4 0.2 -1.1 0.9 0.2 1.3 -0.4 1.1 -1.9 -0.2 -1.2 0.2 -2.4 0.8 -2.8 0.8 -0.5 0.7 -1.1 -0.2 -2.3 -0.8 -0.9 -0.8 -1.3 -0.2 -0.9 0.7 0.4 1.5 0 1.8 -0.9 0.8 -2.2 0.8 -2.6 -0.4 -1.9 -0.6 0.3 -1.3 -0.1 -1.7 -1 -0.3 -1 0 -2.1 0.8 -2.6 1.1 -0.7 1.1 -0.9 -0.3 -0.9 -0.9 0 -1.8 -0.5 -2 -1.2 -0.3 -0.7 -2.1 -1.2 -4.1 -1.1 -2 0.1 -3.7 -0.3 -3.7 -0.8 0 -0.5 -0.6 -0.9 -1.4 -0.9 -0.7 0 -1.9 -0.7 -2.6 -1.5 -1 -1.2 -1 -1.5 0.2 -1.5 0.8 0 2 0.6 2.7 1.3 1 1 1 0.6 0 -1.7 -0.7 -1.5 -1.5 -2.3 -1.7 -1.7 -0.2 0.6 -1.8 1 -3.5 1 l-3.2 -0.1 3 -0.8 c2.8 -0.7 2.6 -0.8 -1.5 -0.9 -11.6 -0.5 -11.7 -0.5 -11.3 -2.6 0.2 -1.1 0.1 -1.4 -0.3 -0.7 -0.7 1.6 -3.1 1.6 -3.7 0 -0.4 -1 -0.6 -1 -0.6 0 -0.1 0.6 -0.8 1.2 -1.7 1.2 -0.8 0 -1.2 -0.4 -0.9 -1 0.3 -0.5 -0.1 -2 -0.9 -3.2 -1.2 -1.7 -1.6 -1.8 -1.6 -0.6 0 1.8 -2.7 4.4 -3.7 3.5 -0.3 -0.4 0 -1.3 0.7 -2.2 0.7 -0.8 1.1 -1.5 0.9 -1.6 -2.5 -0.6 -5.9 -0.4 -6 0.5 0 0.6 -0.4 0.2 -0.9 -0.9 -0.8 -1.9 -0.9 -1.9 -0.9 0.3 -0.1 1.3 -0.5 2 -1.1 1.7 -0.5 -0.3 -1 -0.1 -1 0.4 0 0.6 -0.7 1.1 -1.5 1.1 -0.8 0 -1.5 -0.4 -1.5 -0.9 0 -0.5 -1 -0.7 -2.1 -0.4 -1.6 0.4 -2 0.2 -1.7 -0.8 0.7 -2.1 -1.7 -3.9 -5.4 -3.9 -2.5 0 -2.9 -0.3 -1.8 -1 1.3 -0.8 1.3 -1 -0.2 -1 -0.9 0 -2 0.4 -2.3 1 -1.1 1.8 -6.7 1.1 -8.5 -1 -1 -1.1 -2.5 -1.8 -3.8 -1.5 -1.1 0.2 -2.6 -0.3 -3.3 -1.1 -1.5 -1.9 -4.9 -1.8 -4.9 0.2 0 0.8 -0.4 1.3 -0.9 1 -0.5 -0.4 -1.2 0 -1.4 0.6 -0.5 1.1 -1.1 -1.4 -0.9 -3.3 0.1 -0.7 -4.7 -0.3 -5.6 0.5 -0.3 0.3 0 0.6 0.6 0.6 0.7 0 1.2 0.5 1.2 1.2 0 0.6 -0.9 0.3 -2 -0.7 -1.2 -1 -1.8 -2.5 -1.5 -3.3 0.3 -0.8 0 -1.2 -0.7 -0.9 -0.7 0.2 -1.2 1.1 -1 1.8 0.3 1.1 0.1 1.2 -0.9 0.2 -0.7 -0.7 -2.3 -1.3 -3.6 -1.3 -1.3 0 -2.2 -0.3 -2.2 -0.7 0.3 -1.9 -0.2 -3.3 -1.2 -3.3 -0.5 0 -0.7 0.5 -0.3 1.2 0.4 0.7 0.3 0.8 -0.4 0.4 -0.6 -0.4 -0.8 -1.4 -0.5 -2.2 0.4 -1.1 0 -1.5 -1.3 -1.2 -1.1 0.2 -2.1 0.6 -2.4 1 -0.3 0.3 -2.3 -0.2 -4.5 -1.2 -4.4 -2 -5.5 -1.8 -5.5 1 0 1.6 -0.4 1.8 -2.2 1.1 -1.9 -0.7 -3 -0.3 -6 2.7 -2.1 2 -3.8 3.1 -3.8 2.6 0 -0.6 5.2 -5.7 11.5 -11.5 6.3 -5.7 11.5 -11.2 11.5 -12.1 0 -1.1 1.7 -2.6 4.3 -3.9 2.3 -1.2 6.1 -3.5 8.4 -5 2.3 -1.6 5.1 -2.9 6.3 -2.9 1.2 0 2 -0.5 1.8 -1.1 -0.4 -1.3 14 -15.5 15.3 -15.2 0.5 0.2 0.8 -0.3 0.6 -0.9 -0.1 -0.7 1.3 -1.7 3.1 -2.2 1.7 -0.6 3.2 -1.4 3.2 -1.9 0 -0.4 -0.4 -0.5 -1 -0.2 -2.3 1.4 -0.7 -0.9 3.3 -4.6 3.1 -2.9 4.8 -3.8 6.5 -3.4 1.2 0.3 2.2 0.2 2.2 -0.2 0 -1.3 5.2 -3.3 8.7 -3.3 2.8 0 3.3 -0.4 3.3 -2.3 0 -2 -0.4 -2.2 -4 -1.9 -2.2 0.2 -4 0 -4 -0.4 0.1 -1.3 7.5 -6.9 8.8 -6.8 0.7 0.1 2.3 0.2 3.7 0.2 2.1 0.2 2.5 0.7 2.5 3.3 0 1.8 1.6 6.6 3.6 10.8 5.6 11.7 13.7 18.9 41.5 37.4 31 20.6 39.3 27.8 45.3 39.4 2.3 4.5 2.3 20.9 0 24.2 -2.7 3.7 -11.1 6.8 -23.5 8.5 -6.3 0.9 -12.7 2 -14.3 2.4 l-2.8 0.8 2.4 2.9 c1.4 1.7 2.7 3.8 3.1 4.8 0.3 0.9 1.3 1.7 2.2 1.7 0.8 0 1.5 0.5 1.5 1 0 0.6 0.9 1 2 1 1.1 0 2 0.4 2 1 0 0.5 1.1 2 2.5 3.4 2.1 2.1 3.5 2.5 9.9 2.7 l7.5 0.2 20.6 -20.1 c17.3 -16.9 21.1 -20.2 23.6 -20.2 2.4 0 2.9 -0.4 2.9 -2.6 0 -3.4 2.2 -5.4 5.9 -5.4 2.8 0 3.1 0.3 3.1 3.1 0 3.7 -2 5.9 -5.4 5.9 -2.2 0 -2.6 0.5 -2.6 2.8 0 2.4 -3.7 6.5 -22 24.5 -12.1 11.9 -22.7 21.7 -23.5 21.7 -0.8 0 -1.7 1.1 -2.1 2.5 -0.3 1.4 -1.2 2.5 -1.9 2.5 -0.7 0 -3.1 2 -5.3 4.5 -2.2 2.5 -4.4 4.5 -5 4.5 -0.5 0 -1.2 0.7 -1.6 1.5 -0.3 0.8 -1.2 1.5 -2.1 1.5 -0.8 0 -1.5 0.4 -1.5 0.9 0 0.5 -1 1.3 -2.2 1.7 -1.3 0.4 -2.6 1.1 -2.9 1.6 -0.4 0.6 -2.8 1.4 -5.5 1.9 -2.6 0.5 -5.1 1.3 -5.4 1.9 -1 1.7 -11.2 1.9 -26.5 0.4z m54.5 -22.6 c2.8 -3.2 5 -5.8 4.8 -5.8 -0.2 0 -3 2.8 -6.3 6.1 -3.3 3.4 -5.5 6 -4.9 5.8 0.6 -0.2 3.5 -3 6.4 -6.1z m-14.2 -38.5 c-1 -0.2 -2.6 -0.2 -3.5 0 -1 0.3 -0.2 0.5 1.7 0.5 1.9 0 2.7 -0.2 1.8 -0.5z"/>
  <path d="M662.3 481.3 c-0.7 -0.2 -1.3 -0.9 -1.3 -1.5 0 -0.7 0.5 -0.7 1.3 0.1 0.8 0.6 1.6 0.8 1.9 0.5 0.3 -0.3 0.9 -0.1 1.3 0.5 0.6 1.1 -1 1.3 -3.2 0.4z"/>
 </g>
 <g fill="#ff8258">
  <path d="M816 613.8 c0 -0.7 -1.1 -2.2 -2.5 -3.2 -1.4 -1 -2.5 -2.3 -2.5 -2.9 0 -1 -6.7 -7.7 -7.8 -7.7 -0.8 0 -7.2 -7.4 -7.2 -8.3 0 -0.5 -0.4 -0.5 -1 -0.2 -0.5 0.3 -1 -0.1 -1 -1 0 -0.9 -0.4 -1.3 -1 -1 -0.5 0.3 -1 0.1 -1 -0.4 0 -0.6 0 -1.3 -0.1 -1.5 0 -0.3 -5.7 -6.1 -12.5 -13 -6.9 -7 -12.2 -13.1 -11.9 -13.6 0.3 -0.6 0 -1 -0.7 -1 -0.7 0 -2.9 -2.3 -4.8 -5 -1.9 -2.7 -4.1 -5 -4.7 -5 -0.7 0 -1.3 -0.5 -1.3 -1.1 0 -0.6 -0.6 -0.9 -1.2 -0.6 -1.7 0.5 -1.7 3.8 -0.1 10.7 0.7 3 1.2 6 1.2 6.5 -0.1 2.6 -2.1 -4.8 -4.4 -16.3 -4 -19.6 -6.4 -25.9 -12.1 -30.4 -1.2 -1 -3.4 -4.2 -4.9 -7.3 -1.6 -3 -3.6 -6.2 -4.7 -7.1 -1 -1 -1.8 -2.5 -1.8 -3.4 0 -2 -1.9 -3 -5.5 -3 -1.3 0 -2.6 -0.4 -2.9 -0.9 -0.3 -0.4 -4.7 -1.1 -9.8 -1.3 -5.1 -0.3 -10.9 -1.2 -12.8 -2.1 -11.2 -4.9 -13.1 -5.7 -14.7 -5.8 -1 0 -4.5 -1.1 -7.8 -2.5 -5.2 -2.1 -4.7 -2.4 1.5 -0.8 0.8 0.2 3.4 1 5.8 1.9 2.4 0.8 5.1 1.7 6 1.9 0.9 0.1 2.4 0.6 3.2 0.9 2.1 0.8 10.1 2.9 12.5 3.2 1.1 0.2 3.4 0.6 5 1 8.9 2.1 25.8 1.6 34.5 -1 1.9 -0.6 4.7 -1.8 6 -2.6 2.4 -1.4 8.2 -3.9 9.1 -3.9 0.5 0 1.7 1.6 2.6 3.5 0.9 1.9 2 3.5 2.4 3.5 0.4 0 1 1.2 1.4 2.7 0.8 3.4 2.3 5.3 4.1 5.3 2.6 0 6.3 5.2 11.8 16.7 0.6 1.3 1.4 2.3 1.9 2.3 0.4 0 0.7 0.9 0.7 2 0 1.1 0.6 2 1.4 2 0.8 0 1.9 1.3 2.4 2.9 0.6 1.6 2.2 4.2 3.6 5.7 3.8 4.2 7.6 10.3 7.6 12.1 0 0.8 1.1 2.4 2.5 3.5 1.4 1.1 2.5 2.6 2.5 3.4 0 0.8 0.4 1.4 0.8 1.4 0.5 0 1.5 1.1 2.2 2.5 0.7 1.4 1.9 2.5 2.6 2.5 0.7 0 1.8 1.6 2.3 3.7 0.6 2 2.3 5 4 6.7 1.6 1.7 5 5.3 7.5 8 2.5 2.6 4.6 5.4 4.6 6.2 0 0.8 0.5 1.4 1 1.4 0.6 0 1 0.8 1 1.8 0 0.9 0.7 3 1.5 4.6 0.8 1.5 1.5 4.3 1.5 6.2 0 1.8 0.5 3.6 1 3.9 2.2 1.4 0.8 5.2 -3.4 9.4 -3.7 3.6 -5.2 4.4 -9 4.8 -3.3 0.2 -4.6 0 -4.6 -0.9z"/>
  <path d="M844 592.1 c0 -2.1 0.5 -3.1 1.5 -3.1 0.8 0 1.5 -0.7 1.5 -1.5 0 -1.1 1.1 -1.5 3.7 -1.5 l3.6 0 -2.4 2.6 c-1.3 1.4 -3.6 3.5 -5.1 4.6 l-2.8 1.9 0 -3z"/>
  <path d="M662 481 c-2.4 -1.5 -0.7 -1.8 2 -0.3 1.4 0.7 1.8 1.3 1 1.3 -0.8 0 -2.2 -0.4 -3 -1z"/>
  <path d="M868 372.5 c0 -3.3 0.2 -3.5 3.5 -3.5 3.3 0 3.5 0.2 3.5 3.5 0 3.3 -0.2 3.5 -3.5 3.5 -3.3 0 -3.5 -0.2 -3.5 -3.5z"/>
 </g>
 <g fill="#ff915a">
  <path d="M826 611.8 c0 -0.2 1.1 -1.9 2.5 -3.8 2.1 -2.9 2.6 -5.8 0.7 -4.6 -0.4 0.2 -0.7 -1.6 -0.6 -4 0.1 -2.4 -0.3 -4.8 -1 -5.2 -1 -0.6 -1.5 -2.2 -1.8 -5.9 -0.1 -0.7 -0.5 -1.3 -0.9 -1.3 -0.3 0 -0.9 -0.9 -1.2 -2.1 -0.4 -1.3 -1 -1.8 -1.8 -1.3 -0.8 0.4 -1 0.3 -0.5 -0.5 0.4 -0.6 -0.7 -2.5 -2.6 -4.5 -8.2 -8.3 -9.9 -10.5 -10.9 -14 -0.5 -2 -1.4 -3.4 -1.9 -3.1 -0.5 0.3 -1.7 -0.8 -2.6 -2.5 -1 -1.6 -2.2 -3 -2.6 -3 -0.4 0 -0.8 -0.6 -0.8 -1.4 0 -0.8 -1.1 -2.3 -2.5 -3.4 -1.4 -1.1 -2.5 -2.7 -2.5 -3.5 0 -1.8 -3.8 -7.9 -7.6 -12.1 -1.4 -1.5 -3 -4.2 -3.6 -5.8 -0.7 -1.9 -1.5 -2.7 -2.4 -2.4 -1 0.4 -1.4 -0.2 -1.4 -1.8 0 -1.3 -0.7 -2.7 -1.6 -3 -0.9 -0.4 -1.4 -0.9 -1.1 -1.2 0.3 -0.3 -0.7 -2.7 -2.3 -5.3 -1.5 -2.7 -3.1 -5.8 -3.5 -7 -0.4 -1.4 -1.2 -2 -2.1 -1.7 -0.7 0.3 -1.3 0.2 -1.3 -0.2 0.3 -1.8 -0.2 -3.3 -0.9 -2.8 -1.3 0.8 -5.2 -2.3 -5.2 -4 0 -0.8 -0.5 -1.4 -1.1 -1.4 -0.6 0 -0.9 -0.6 -0.7 -1.2 0.3 -0.7 0 -1.8 -0.6 -2.5 -2.8 -3.2 -3.6 -4.3 -3.5 -4.9 0 -0.3 -0.2 -0.8 -0.5 -1.1 -0.3 -0.4 -0.6 -0.1 -0.6 0.5 0 0.7 -0.7 1.2 -1.5 1.2 -0.9 0 -1.5 0.6 -1.4 1.3 0.1 0.6 0.1 1.7 0 2.2 -0.1 0.6 -5.4 1.1 -13.4 1.1 -10.5 0.2 -12.1 0 -7.7 -0.7 6.6 -1 10.4 -1.7 10.8 -2 0.1 -0.1 0.7 -0.3 1.2 -0.4 0.6 -0.1 1.2 -0.4 1.5 -0.5 0.6 -0.3 2.2 -0.7 3.4 -0.9 0.5 0 1.6 -0.7 2.3 -1.4 0.7 -0.7 2.3 -1.7 3.4 -2.2 6.3 -2.9 20.5 -16.9 19.7 -19.4 -0.3 -1 -0.2 -1.2 0.4 -0.4 1.1 1.6 4.8 -1.1 3.7 -2.8 -0.5 -0.8 -0.3 -1 0.6 -0.4 0.7 0.4 1.6 0.2 2 -0.5 0.5 -0.8 2.4 -1 6.3 -0.5 5 0.6 5.8 1.1 7.2 3.8 0.8 1.6 1.5 3.4 1.5 3.9 0 1.8 4.1 9.8 5 9.8 0.6 0 1 0.6 1 1.2 0 2.8 6.4 14.7 8.1 15.1 1.4 0.4 1.9 1.4 1.9 4 0 2 0.5 3.7 1.1 3.9 0.5 0.2 1.4 2.3 2 4.6 1.1 5 4.3 9.8 7 10.5 1 0.3 2.1 1.8 2.5 3.3 0.4 1.6 1.2 3.6 1.9 4.4 0.6 0.8 1.5 2.3 1.8 3.3 0.4 0.9 1.6 1.7 2.8 1.7 2.1 0 2.1 0.2 1.3 8.3 -1.2 11.9 -0.9 17.3 1.5 21 1.2 1.8 2.9 4.5 3.8 6.1 4.5 7.2 7 10.6 10 13 l3.1 2.6 3 -3 c2.2 -2.1 4 -3 6.4 -3 3.2 0 2.9 0.5 -12.2 15 -14 13.6 -21 19.8 -21 18.8z"/>
  <path d="M707.1 494.9 c-6.3 -1.2 -15.4 -3.9 -14.9 -4.4 0.2 -0.3 2 0 3.9 0.5 1.9 0.6 5 1.2 6.9 1.5 1.9 0.3 4.6 0.7 6 1.1 1.4 0.3 5 0.8 8 1.1 3 0.2 5.7 0.6 5.9 0.9 0.7 0.7 -11.2 0.2 -15.8 -0.7z"/>
  <path d="M674 485 c-1.2 -0.8 -1 -0.9 0.7 -0.7 1.2 0.2 2.6 0.6 2.9 1 1.1 1.1 -1.9 0.8 -3.6 -0.3z"/>
 </g>
 <g fill="#9c5bfb">
  <path d="M733 495 c2 -1.3 5.3 -1.3 4.5 0 -0.3 0.6 -1.8 1 -3.3 1 -2.1 0 -2.4 -0.2 -1.2 -1z"/>
  <path d="M705 494.1 c-1.4 -0.4 -2 -1 -1.4 -1.4 0.6 -0.3 2 0 3 0.8 2.1 1.6 2 1.6 -1.6 0.6z"/>
  <path d="M739 493.8 c0 -0.6 0.3 -0.8 0.7 -0.5 0.3 0.4 1.2 0.2 2 -0.4 0.7 -0.6 1.3 -0.8 1.3 -0.4 0 0.4 0.7 0.2 1.5 -0.5 0.9 -0.7 1.5 -0.8 1.5 -0.2 0 0.5 -1.4 1.5 -3.1 2.1 -3.9 1.4 -3.9 1.4 -3.9 -0.1z"/>
  <path d="M749.8 490.2 c1 -1 2.7 -2.2 3.8 -2.5 1.2 -0.5 0.8 0.2 -1.1 1.8 -3.5 2.9 -5.4 3.4 -2.7 0.7z"/>
  <path d="M767 477.4 c0 -0.4 12 -12.6 26.8 -27.2 14.7 -14.6 24.2 -24.3 21.2 -21.7 -3 2.7 -14 13.2 -24.4 23.4 -17.5 17.2 -19 18.3 -19.8 16.2 -0.4 -1.3 -0.6 -2.7 -0.2 -3.2 0.3 -0.5 -0.2 -0.9 -1 -0.9 -0.8 0 -1.9 0.7 -2.4 1.6 -0.9 1.6 -1.1 1.6 -3.3 0 -1.3 -0.9 -3.3 -1.6 -4.6 -1.6 -2.2 0 -7.3 -4.2 -7.3 -6.1 0 -0.6 -0.4 -0.8 -0.9 -0.4 -0.5 0.3 -1.5 -0.1 -2.3 -0.8 -0.7 -0.7 -2.1 -1.6 -3 -2 -1 -0.3 -1.8 -1.2 -1.8 -1.9 0 -0.7 -2 -3.5 -4.4 -6.2 -4.3 -4.9 -4.4 -4.9 -8.2 -3.8 -2.2 0.6 -5 1.3 -6.4 1.7 l-2.5 0.6 2.5 -1.2 c5.4 -2.4 20 -5.9 30.9 -7.5 12.4 -1.7 20.8 -4.8 23.5 -8.5 2.2 -3.1 2.2 -13.9 0 -18.2 -0.9 -1.8 -3.2 -5.3 -5.1 -7.9 l-3.5 -4.8 3.2 0 c2.6 0 3.5 0.7 6.2 5 2.5 4.1 3.6 5 5.9 5 1.5 0 5.1 1.3 7.9 3 2.8 1.6 6.1 3.2 7.4 3.6 1.3 0.3 3.3 1.4 4.3 2.4 3.1 2.8 7.6 4.8 9.5 4.1 0.9 -0.3 6.8 -5.7 13.1 -11.8 6.4 -6.2 12 -11.3 12.6 -11.3 0.6 0 1.1 -0.4 1.1 -1 0 -0.5 0.9 -1 2 -1 1.2 0 2 -0.7 2 -1.6 0 -2.5 2.6 -4.4 5.9 -4.4 2.8 0 3.1 0.3 3.1 3.1 0 3.3 -1.9 5.9 -4.4 5.9 -0.9 0 -1.6 0.8 -1.6 1.8 0 1.7 -17.7 19.6 -37.8 38 -6.2 5.7 -11.2 11 -11.2 11.8 0 0.8 -0.7 1.4 -1.5 1.4 -0.9 0 -1.9 0.8 -2.2 1.7 -0.9 2.3 -4.3 5.7 -6.6 6.6 -0.9 0.3 -1.7 1.3 -1.7 2.2 0 0.8 -0.7 1.5 -1.5 1.5 -0.9 0 -1.9 1 -2.4 2.3 -0.5 1.2 -1.1 2.1 -1.5 2 -1.5 -0.6 -2.4 0 -8.1 5.2 -5.7 5.1 -7.5 6.3 -7.5 4.9z"/>
  <path d="M763.5 391 c-3.3 -2.9 -16.5 -12.2 -29.4 -20.7 -27.8 -18.5 -35.9 -25.7 -41.5 -37.4 -2 -4.2 -3.6 -9 -3.6 -10.6 0 -2 -0.6 -3.3 -1.7 -3.8 -1.5 -0.5 -1.6 -0.4 -0.5 0.6 0.6 0.7 1.2 2.3 1.2 3.5 0 1.2 0.7 4 1.5 6.3 0.8 2.3 1.2 4.8 0.8 5.7 -0.5 1.3 -0.8 1.2 -2.5 -0.5 -1 -1.2 -2.3 -2.1 -2.9 -2.1 -0.6 0 -0.7 -0.5 -0.4 -1 1.4 -2.2 -6.1 -0.4 -8.5 2 -0.3 0.3 -1.7 1.1 -3.1 1.9 -2.4 1.2 -2.9 1.1 -4.7 -0.7 l-2 -2 5.8 -5.6 c3.2 -3.1 7.3 -6.1 8.9 -6.7 1.7 -0.6 3.1 -1.7 3.1 -2.5 0 -1.5 6.9 -5.4 9.6 -5.4 1.3 0 1.5 0.6 1 2.7 -1.8 7.2 -1.7 8.2 1 14.5 1.6 3.4 3.2 6.5 3.6 6.6 0.4 0.2 0.8 1 0.8 1.8 0 0.8 0.5 1.4 1 1.4 0.6 0 1 1.5 1 3.4 0 3.3 0.2 3.5 3.8 3.8 2.7 0.2 4 0.9 4.7 2.6 0.5 1.2 1.8 2.2 2.8 2.2 1 0 2 0.7 2.3 1.5 0.4 0.8 1.3 1.5 2 1.5 0.8 0 1.7 0.7 2 1.5 0.4 0.8 1.2 1.5 2 1.5 0.8 0 1.4 0.5 1.4 1 0 0.6 0.7 1 1.5 1 0.8 0 1.5 0.5 1.5 1 0 0.6 0.7 1 1.5 1 0.8 0 1.5 0.5 1.5 1 0 0.6 0.7 1 1.5 1 0.8 0 1.5 0.4 1.5 0.9 0 0.5 1 1.1 2.3 1.5 1.2 0.3 3.2 1.4 4.4 2.6 1.2 1.1 2.7 2 3.3 2 0.5 0 1 0.5 1 1 0 0.6 0.7 1 1.5 1 0.8 0 1.5 0.5 1.5 1 0 0.6 0.7 1 1.5 1 0.8 0 1.5 0.5 1.5 1 0 0.6 0.7 1 1.5 1 0.8 0 1.5 0.5 1.5 1 0 0.6 0.7 1 1.5 1 0.8 0 1.5 0.5 1.5 1 0 0.6 0.7 1 1.5 1 0.9 0 1.8 0.7 2.1 1.5 0.4 0.8 1.3 1.5 2 1.5 0.8 0 1.7 0.7 2 1.5 0.4 0.8 1.2 1.5 1.8 1.5 2.4 0 5.8 4.7 5.4 7.4 -0.3 2.7 -0.3 2.7 -6.3 -2.4z"/>
  <path d="M620.1 369.6 c0.2 -0.2 1.5 -0.9 2.9 -1.6 2.3 -1.2 2.4 -1.2 1.1 0.3 -0.7 1 -2 1.7 -2.9 1.7 -0.8 0 -1.3 -0.2 -1.1 -0.4z"/>
  <path d="M869 364.5 c0 -2.4 0.1 -2.5 3.2 -1.2 4.6 1.9 4.8 3.7 0.4 3.7 -3.2 0 -3.6 -0.3 -3.6 -2.5z"/>
  <path d="M854 359.6 c0 -2.3 0.2 -2.4 3.5 -1.3 1.9 0.6 3.5 1.6 3.5 2.4 0 0.8 -1.3 1.3 -3.5 1.3 -3 0 -3.5 -0.3 -3.5 -2.4z"/>
  <path d="M843.8 358.3 c-1 -0.2 -1.8 -0.9 -1.8 -1.4 0 -0.5 -1 -0.9 -2.1 -0.9 -3.1 0 -9.9 -2.2 -9.9 -3.2 0 -0.4 -1.3 -0.8 -3 -0.8 -2.3 0 -3 -0.4 -3 -2 0 -1.1 0.3 -2 0.8 -2 2.6 -0.2 27.2 8.7 27.2 9.7 0 1.3 -4.5 1.6 -8.2 0.6z"/>
 </g>
 <g fill="#ffa660">
  <path d="M832 606.4 c0 -0.5 2 -3 4.5 -5.4 2.5 -2.4 4.5 -4.9 4.5 -5.6 0 -0.6 1.3 -1.7 2.9 -2.4 4.9 -2 4.7 -3.9 -0.9 -9.2 -2.7 -2.7 -6.1 -7 -7.5 -9.6 -1.4 -2.6 -3.6 -6.2 -4.9 -8 -3.7 -5 -4.3 -12.8 -2.1 -27.7 0.3 -1.6 0.2 -2.4 -0.1 -1.7 -0.3 0.6 -1.2 1.2 -2 1.2 -0.9 0 -1.2 0.5 -0.8 1.3 0.4 0.6 0.4 0.9 -0.1 0.5 -0.4 -0.4 -0.9 -2.2 -1 -3.9 -0.2 -1.7 -1.1 -3.9 -2 -4.8 -1.2 -1 -1.5 -1.1 -1 -0.2 0.6 1 0.4 1.2 -0.4 0.6 -0.7 -0.4 -1.1 -1.8 -0.9 -3 0.3 -1.4 0.1 -2.2 -0.6 -1.9 -1 0.4 -4.5 -4.4 -8.4 -11.6 -0.7 -1.3 -1.8 -2.7 -2.3 -3.1 -0.5 -0.3 -1.1 -3 -1.3 -6 -0.2 -3.4 -0.7 -5.3 -1.5 -5.1 -1.1 0.2 -8.1 -13 -8.1 -15.5 0 -0.7 -0.4 -1.3 -1 -1.3 -0.9 0 -5 -8 -5 -9.8 0 -2.3 -3.2 -7.1 -4.5 -6.6 -0.7 0.3 -2.2 0.1 -3.3 -0.5 -2.3 -1.2 -4.2 0 -12.8 8.2 -10.2 9.6 -20 15.9 -28.9 18.6 -3.7 1.2 -7.7 2.1 -8.9 2 l-2.1 0 2.1 -0.9 c1.2 -0.4 3.8 -1.1 5.9 -1.4 2 -0.4 4.2 -0.9 4.9 -1.3 0.6 -0.4 1.9 -0.9 2.9 -1 1.4 -0.2 7.9 -4.4 13.5 -8.7 0.8 -0.6 15 -14.5 31.6 -30.8 28.2 -27.9 30.1 -29.6 30.4 -26.8 0.4 3.2 -2.3 7 -4.9 7 -1 0 -1.9 1 -2.1 2.5 -0.3 1.4 -0.1 2.5 0.4 2.5 1.7 0 8.3 7.4 9.8 11 0.7 1.9 2.9 5.3 4.7 7.4 1.8 2.2 3.8 5.7 4.4 7.8 0.5 2.1 1.4 3.8 1.9 3.8 0.6 0 1 1 1 2.3 0 3.7 2.4 10.2 4.6 12.5 1.1 1.2 2.7 4.8 3.4 8 1.8 7.8 3.6 11.2 6 11.2 1.6 0 2 0.7 2 3.4 0 2.4 -1.4 5.3 -5.3 10.7 -2.9 4.1 -5.6 8 -6.1 8.7 -0.9 1.6 1.3 12.2 3.1 14.3 0.7 0.8 1.3 2.5 1.3 3.7 0 1.2 0.8 2.6 1.9 3.1 1 0.6 2.4 3.1 3 5.8 1.4 5.5 5.9 11.8 10.5 14.8 2.3 1.5 3.2 2.9 3.4 5.6 0.3 3.2 -0.3 4 -6 9.3 -3.5 3.2 -11.1 10.6 -17 16.4 -6 5.9 -10.8 10.2 -10.8 9.6z"/>
  <path d="M705 494 c-1.9 -0.7 -1.5 -0.8 1.8 -0.5 2.4 0.2 4.6 0.6 5 0.9 0.8 0.9 -3.9 0.5 -6.8 -0.4z"/>
  <path d="M866.2 374.3 c0.3 -3.5 0.6 -3.8 3.6 -4.1 2.8 -0.3 3.2 -0.7 3.2 -3.3 0 -3.4 0.1 -3.4 4 -1.4 3.9 2 3.9 4.5 0.1 4.5 -2.7 0 -3 0.3 -3.3 3.8 -0.3 3.5 -0.5 3.7 -4.1 4 l-3.8 0.3 0.3 -3.8z"/>
 </g>
 <g fill="#72bbec">
  <path d="M406.6 729.8 c0.4 -0.7 0.3 -0.8 -0.5 -0.4 -1.8 1.2 -5.3 -0.4 -4.7 -2 0.4 -0.9 0.2 -1.2 -0.5 -0.8 -1.3 0.8 -2.9 -1.3 -2.9 -3.9 0 -1.4 0.6 -1.8 2.8 -1.5 1.9 0.2 2.7 0.8 2.6 2.1 -0.1 1 0 1.6 0.3 1.3 0.3 -0.3 2 0.2 3.7 1.1 1.7 1 5.4 1.8 8.1 1.9 2.8 0.1 4.2 0 3.2 -0.3 -1.6 -0.4 -1.5 -0.7 0.8 -1.9 3.3 -1.7 3.3 -1.7 3.8 -0.1 0.2 0.6 0.3 0.3 0.1 -0.8 -0.3 -1.9 1.9 -5.9 2.7 -5.1 0.2 0.3 0.5 -1.6 0.6 -4 0.1 -2.5 0.7 -5.1 1.3 -5.9 0.6 -0.8 0.7 -1.6 0.2 -1.9 -0.6 -0.3 -1.2 0.4 -1.5 1.5 -0.4 1.3 -1 1.8 -1.8 1.3 -0.7 -0.4 -1 -0.3 -0.6 0.3 0.9 1.4 -2.9 4.7 -4.4 3.7 -0.7 -0.4 -1 -0.3 -0.6 0.3 0.4 0.6 0 1.4 -0.9 1.7 -2.5 0.9 -9.6 0.7 -9 -0.3 0.4 -0.5 -0.2 -0.7 -1.2 -0.5 -1 0.3 -3 -0.8 -5 -2.9 -2.9 -3 -3.4 -4.3 -3.9 -10.1 -0.4 -5.9 -0.1 -7.4 2.2 -12.2 1.9 -4 3.8 -6.1 6.9 -7.9 7.7 -4.5 17.2 -2.8 19.9 3.4 l1.1 2.6 0.4 -3 c0.7 -5.9 6.3 -6.9 6.1 -1.1 0 2.5 -0.2 2.7 -0.8 1.2 -0.7 -1.9 -0.8 -1.9 -1.3 0.2 -0.4 1.2 -0.2 2.2 0.3 2.2 0.5 0 0.9 1.8 0.9 4.1 0 2.2 -0.4 3.8 -0.9 3.5 -0.5 -0.4 -0.7 0.3 -0.4 1.5 0.3 1.1 0 6.2 -0.7 11.2 -1.3 10.2 -4.2 18.3 -6.1 17.1 -0.8 -0.4 -0.9 -0.3 -0.5 0.4 0.9 1.6 -5.1 5.2 -8.6 5.2 -1.6 0 -2.8 -0.4 -2.8 -1 0 -0.6 -0.9 -0.6 -2.6 0 -3.5 1.4 -6.7 1.3 -5.8 -0.2z m16.8 -21.2 c2 -1.8 3.9 -4.7 4.2 -6.5 0.4 -1.7 0.9 -2.9 1.3 -2.7 0.9 0.6 0.7 -7.8 -0.2 -8.5 -0.7 -0.5 -1.2 -1.9 -1.6 -4.9 -0.1 -0.5 -3.1 -0.8 -8.8 -1 -7.7 -0.2 -13.2 6.6 -13.3 16.3 0 4 0.5 5.3 2.9 7.8 2.4 2.3 3.8 2.9 7.5 2.9 3.7 0 5.1 -0.6 8 -3.4z"/>
  <path d="M140.2 718.2 c-1.8 -0.2 -3.6 -1 -3.9 -1.8 -0.3 -0.7 -0.9 -1.2 -1.3 -0.9 -0.5 0.3 -1.1 -0.4 -1.5 -1.5 -0.3 -1.1 -0.9 -1.9 -1.3 -1.7 -0.4 0.1 -0.7 -0.1 -0.7 -0.4 0 -0.3 -0.8 -1.4 -1.9 -2.4 -3.7 -3.8 0 -23.7 4.3 -22.8 0.6 0.2 1 -0.2 0.8 -0.8 -0.4 -2.2 8.3 -5.9 13.8 -5.9 6 0 12.2 3.4 11.7 6.4 -0.2 1.1 0.1 1.5 0.7 1.2 1.5 -1 2.4 3.6 1.2 6.6 -0.8 2.2 -0.7 2.6 0.4 2.2 0.8 -0.4 1.3 0 1.1 1 -0.3 2 -1.6 3.3 -1.6 1.6 0 -1.1 -0.3 -1.1 -1.2 -0.2 -0.8 0.8 -5.4 1.2 -14.2 1.2 l-13.1 0 0 3.9 c0 2.2 0.2 3.8 0.4 3.6 0.2 -0.2 1.4 0.9 2.8 2.5 3 3.6 7.8 4.7 13 2.9 2.1 -0.7 4.5 -1.2 5.3 -1.1 1.1 0.1 1.1 0 0.2 -0.4 -1 -0.5 -0.9 -1 0.4 -2.5 0.9 -1 2.2 -1.9 2.8 -1.9 0.6 0 0.5 0.4 -0.3 0.9 -1.2 0.8 -1.2 1.2 -0.2 2.5 1.1 1.3 1.1 1.9 0 3.2 -3.2 3.9 -10.2 5.6 -12.8 3.2 -1 -0.9 -1.2 -0.9 -0.7 -0.1 0.8 1.5 -0.2 1.9 -4.2 1.5z m9.6 -19.9 c-1 -0.2 -2.6 -0.2 -3.5 0 -1 0.3 -0.2 0.5 1.7 0.5 1.9 0 2.7 -0.2 1.8 -0.5z m7.8 -3.8 c0.9 -2.1 -1.5 -7.4 -3.8 -8.6 -3 -1.6 -9.3 -1.3 -12.5 0.6 -3 1.8 -7.6 7.9 -6.6 8.9 0.4 0.3 5.5 0.6 11.5 0.6 8.8 0 11 -0.3 11.4 -1.5z m0.4 -10.6 c0 -0.6 -4.6 -2.9 -5.8 -2.9 -0.4 0 0.1 0.5 1.2 1.1 1.4 0.9 1.5 1.3 0.6 1.9 -0.8 0.5 -0.3 0.7 1.3 0.7 1.5 -0.1 2.7 -0.5 2.7 -0.8z"/>
  <path d="M108.6 708.3 c2.8 -21.2 4.4 -33.3 4.6 -34.5 0.2 -0.9 -1.2 -1.4 -4.5 -1.6 -3.3 -0.2 -4.5 -0.7 -4.1 -1.5 0.5 -0.8 0.3 -0.8 -0.7 0.1 -2 1.8 -6.3 1.6 -5.5 -0.4 0.3 -0.9 0.6 -2 0.6 -2.5 0 -0.5 8.4 -0.9 19.6 -0.9 17.5 0 19.5 0.2 19 1.6 -0.3 0.9 -0.6 2 -0.6 2.5 0 0.5 -2.1 0.9 -4.7 0.9 -3.5 0 -4.4 -0.3 -3.3 -1 1.3 -0.8 1.2 -1 -0.2 -1 -1 0 -1.8 0.5 -1.8 1 0 0.6 -1.7 1 -3.9 1 -4.3 0 -3.9 -1.2 -5.7 15.8 -0.4 4.1 -1.2 6.6 -2.1 6.9 -1.1 0.4 -1.1 0.8 -0.3 1.3 1.4 0.9 -0.7 20 -2.2 20 -0.5 0 -0.6 0.5 -0.3 1 0.4 0.6 -0.6 1 -2.3 1 l-2.8 0 1.2 -9.7z m28.2 -39.7 c0.3 -0.3 -4 -0.6 -9.6 -0.6 -5.6 0 -10.2 0.3 -10.2 0.8 0 0.8 18.9 0.7 19.8 -0.2z"/>
  <path d="M177.2 716 c-1.7 -1 -3.8 -3.3 -4.7 -4.9 -2.5 -5 -1.7 -19.1 1.1 -19.1 0.8 0 1.4 -0.5 1.4 -1.1 0 -0.5 -0.5 -0.7 -1.1 -0.3 -2.9 1.8 2.7 -5.5 5.9 -7.6 3 -2.1 4.7 -2.5 10.8 -2.5 7.9 0 11.5 1.7 14.4 6.8 1.2 2.2 1.3 2.8 0.1 3.9 -1.1 1.1 -1.3 1 -0.6 -0.1 0.6 -1.1 0.2 -1.3 -1.9 -0.9 -2 0.4 -3 0 -3.8 -1.6 -0.7 -1.1 -1.2 -2.3 -1.1 -2.6 0.1 -0.3 -2.4 -0.7 -5.5 -0.8 -6.9 -0.3 -11.1 1.9 -13.6 7.2 -2.3 4.9 -2.6 17.6 -0.3 17.6 0.4 0 0.5 0.6 0.1 1.3 -0.4 0.6 -0.4 0.9 0.1 0.5 0.4 -0.4 2.1 0 3.7 0.8 3.6 1.9 8.9 1.2 12.9 -1.7 1.4 -1 2.9 -1.5 3.3 -1.2 0.4 0.4 0.4 0 0.1 -0.9 -0.4 -1.1 0.1 -2 1.4 -2.7 2.7 -1.5 3.6 -1.4 2.2 0.3 -0.9 1.1 -0.9 1.6 0 2.2 0.7 0.4 0.9 0.3 0.6 -0.3 -0.4 -0.6 0 -1.4 0.8 -1.7 2.2 -0.8 0.4 2.3 -4 6.9 -2.5 2.7 -4 3.6 -5.5 3.2 -1.1 -0.3 -1.8 -0.1 -1.5 0.3 0.3 0.5 -2.3 0.8 -5.8 0.9 -4.5 0 -7.2 -0.5 -9.5 -1.9z"/>
  <path d="M212.3 714.3 c0.2 -2.1 1.7 -13.6 3.3 -25.6 l2.8 -21.7 2.9 0 c2.9 0 3 0 2.3 4.8 -0.3 2.6 -0.8 7.4 -1.2 10.7 l-0.6 6 2.1 -3.2 c2.1 -3.4 6.8 -5.3 12.9 -5.3 4.1 0 7.5 1.7 6.6 3.3 -0.4 0.7 -0.4 0.9 0.1 0.5 0.4 -0.4 1.4 -0.3 2.2 0.3 1.6 1.4 1.7 8.7 0.3 19.6 -1.9 14.8 -1.8 14.3 -5 14.3 -2.7 0 -2.9 -0.3 -2.5 -2.7 2.8 -16.8 3.3 -25.6 1.6 -27.7 -0.6 -0.7 -0.9 -1.5 -0.6 -1.7 0.7 -0.8 -3.8 -1 -9.2 -0.4 -2.9 0.4 -5.2 0.9 -5 1.3 0.3 0.9 -2.9 5.3 -3.4 4.7 -0.3 -0.2 -0.5 0.4 -0.6 1.3 -0.1 0.9 -0.9 5.7 -1.7 10.6 -0.9 4.9 -1.6 10.2 -1.6 11.7 0 2.6 -0.4 2.9 -3.1 2.9 -3 0 -3.1 -0.1 -2.6 -3.7z"/>
  <path d="M254.4 714.8 c0.6 -3.6 4.6 -32.6 4.7 -34.3 0 -0.5 0.4 -0.1 0.9 1 0.7 1.7 0.9 1.7 0.9 0.3 0.1 -1.1 0.9 -1.8 2 -1.8 1.6 0 1.8 0.6 1.4 3.8 -0.4 3.1 -0.2 3.9 1 3.9 0.9 0 1.6 -0.3 1.5 -0.6 -0.6 -5.5 10.6 -9.2 17.7 -5.9 2.9 1.3 5.5 5.5 5.5 9 0.1 4.5 -3.4 27.8 -4.1 27.8 -0.4 0 -0.5 -1 -0.2 -2.2 0.3 -1.7 0.2 -1.9 -0.5 -1 -0.5 0.8 -1.3 1.4 -1.8 1.5 -0.5 0.1 -0.8 0.5 -0.6 1 0.1 0.4 -0.3 0.7 -0.8 0.7 -1.1 0 -1.4 -4.3 -0.4 -5.3 0.4 -0.4 0.8 -2.1 0.9 -3.9 0.1 -1.8 0.5 -7.2 1 -11.9 0.7 -8.3 0.7 -8.6 -1.6 -10.2 -5.3 -3.8 -14.1 -0.9 -17.2 5.6 -1.3 2.7 -4.6 20.1 -4.7 25 0 0.4 -1.4 0.7 -3 0.7 -2.9 0 -3.1 -0.2 -2.6 -3.2z"/>
  <path d="M308.5 717 c0.4 -0.6 -0.1 -0.7 -1.1 -0.3 -1.1 0.4 -2.2 -0.1 -3.1 -1.3 -0.8 -1 -1.6 -1.8 -1.8 -1.6 -0.3 0.1 -0.6 -0.1 -0.7 -0.5 0 -0.5 -0.8 -1.3 -1.7 -1.9 -1.7 -1.3 -3 -15.4 -1.5 -15.4 0.5 0 1 -1.1 1 -2.5 0.3 -3.7 5.1 -9.5 9.8 -11.6 7.9 -3.6 19.7 -1.3 20.4 3.9 0.2 1.2 0.9 2.2 1.7 2.2 1.8 0 2.5 2.3 2.5 8.8 0 6.4 -0.8 10.4 -2 9.7 -0.4 -0.3 -0.7 0.3 -0.6 1.3 0 1 -0.5 1.6 -1.3 1.4 -0.8 -0.2 -1.1 0.3 -0.8 1.2 1.1 2.8 -7.4 7.7 -13 7.5 -1.5 0 -2.2 -0.3 -1.5 -0.6 1.7 -0.7 1.5 -2 -0.3 -2 -0.8 0 -1.5 0.6 -1.5 1.4 0 0.7 -1.1 1.3 -2.6 1.3 -1.4 0 -2.2 -0.4 -1.9 -1z m14.6 -6.6 c1.4 -1.3 2.7 -2.2 3 -2 0.6 0.6 1 -3.4 1.3 -12.6 0.2 -4.2 0 -7.6 -0.3 -7.5 -0.3 0.1 -1.8 -0.7 -3.3 -1.6 -1.9 -1.3 -4.1 -1.7 -8.1 -1.5 -3.1 0.1 -5.4 0.5 -5.1 0.7 0.2 0.2 -1 1.9 -2.6 3.7 -3.4 3.9 -4.3 7.8 -3.7 15.9 0.4 5.8 0.4 5.9 4.3 7.1 5.4 1.7 11.3 0.8 14.5 -2.2z"/>
  <path d="M340 717.3 c0 -0.5 1.6 -11.8 3.5 -25.3 1.9 -13.5 3.5 -24.6 3.5 -24.7 0 -0.2 1.2 -0.3 2.8 -0.3 l2.7 0 -0.9 8 c-0.7 5.5 -1.4 8 -2.3 8 -0.7 0 -1.3 0.5 -1.3 1.1 0 0.5 0.5 0.7 1 0.4 1.4 -0.9 1.3 1.1 -1.2 18.3 l-2.2 15.2 -2.8 0 c-1.5 0 -2.8 -0.3 -2.8 -0.7z"/>
  <path d="M363.4 716.1 c-3.1 -1.9 -6.4 -5.7 -6.4 -7.4 0 -0.4 0.6 -0.5 1.3 -0.1 0.6 0.4 0.4 -0.2 -0.5 -1.3 -1.8 -1.9 -2.5 -7.3 -1 -7.3 0.4 0 0.7 -1.7 0.7 -3.8 0.1 -4.2 3.7 -9.8 8.7 -13.3 4 -2.9 13.1 -3.6 18.1 -1.5 2.5 1 3.6 2 3.1 2.7 -0.4 0.8 -0.3 0.9 0.4 0.5 3.1 -1.9 5.8 9 4.2 17.2 -1 5.5 -4.5 11.6 -6 10.7 -0.5 -0.3 -1.2 0 -1.6 0.6 -0.5 0.8 -0.3 0.9 0.6 0.4 0.9 -0.6 1.1 -0.4 0.5 0.4 -2.5 4.2 -16.6 5.5 -22.1 2.2z m11.6 -0.3 c0 -0.5 -1.2 -0.6 -2.6 -0.4 -3.9 0.7 -4.3 1.7 -0.6 1.4 1.8 -0.1 3.2 -0.6 3.2 -1z m0.5 -2.4 c4.8 -0.9 9 -5.2 10.4 -10.8 1.5 -6 1.4 -8 -0.6 -12.4 -0.9 -2 -1.7 -4 -1.7 -4.4 -0.1 -0.3 -0.5 -1 -1 -1.5 -0.5 -0.5 -0.6 -0.2 -0.1 0.6 0.6 1 0.2 1.1 -1.6 0.5 -2.9 -0.9 -9.9 -1.1 -9.3 -0.3 0.2 0.3 -0.7 1.1 -2.1 1.7 -1.3 0.6 -3.2 2.4 -4.2 3.9 -1 1.5 -2.5 3.4 -3.3 4.1 -1 0.9 -1.1 1.1 -0.1 0.6 1.1 -0.5 1.2 0 0.7 2.9 -0.4 2.1 -0.2 5.5 0.5 7.9 0.7 2.4 1.2 4.6 1.1 5.1 -0.1 0.4 0.1 0.6 0.6 0.5 0.4 -0.1 2 0.2 3.5 0.7 2.2 0.6 2.6 1 1.5 1.7 -1 0.8 -0.9 0.9 0.4 0.5 0.9 -0.3 3.3 -0.9 5.3 -1.3z"/>
  <path d="M443 715.7 c0 -3.1 4 -35 4.4 -35.4 0.2 -0.2 1.6 -0.1 3 0.3 1.8 0.4 2.5 1.1 2.2 2.3 -0.2 0.9 -1.2 8.5 -2.2 16.9 -1.3 11 -2.1 15.2 -3.1 15.2 -1.7 0 -1.7 1.7 0 2.3 0.6 0.3 0 0.6 -1.5 0.6 -2.3 0.1 -2.8 -0.3 -2.8 -2.2z"/>
  <path d="M467.2 716.3 c-4.3 -2.1 -6.6 -5.5 -5.7 -8.5 0.5 -1.8 0.4 -2 -0.4 -0.8 -0.9 1.3 -1.1 1.3 -1.1 -0.2 0 -0.9 0.6 -1.9 1.3 -2.1 1 -0.4 1 -0.6 0 -0.6 -0.8 -0.1 -1.3 -1.6 -1.3 -3.8 0 -5.1 1 -8.4 2.3 -7.6 0.6 0.3 0.7 0.1 0.3 -0.5 -0.9 -1.4 4.2 -8.4 5.5 -7.6 0.5 0.3 0.9 0.1 0.9 -0.5 0 -1.9 5.8 -4.1 10.7 -4.1 9.5 0 15.3 5.8 15.3 15.3 l0 4.8 -14.5 -0.2 c-8 -0.1 -14.8 0.1 -15.2 0.5 -0.4 0.4 0.1 3.1 1.1 6.1 1.5 4.2 2.4 5.5 4.5 6 1.4 0.4 2.8 1 3.1 1.4 0.9 1.4 9.6 -1.8 12.3 -4.5 2.2 -2.2 2.9 -2.4 4.2 -1.4 1.2 1 1.5 1 1.5 0 0 -0.8 0.3 -1.1 0.6 -0.7 1.2 1.1 -3 6.5 -6.6 8.6 -4.7 2.6 -14 2.8 -18.8 0.4z m11.4 0 c-1 -1 -5.6 -1.1 -6.2 -0.1 -0.3 0.4 1.2 0.8 3.2 0.8 2.1 0 3.4 -0.3 3 -0.7z m11.7 -6.9 c-0.4 -1.2 -0.8 -1.3 -1.4 -0.3 -0.9 1.5 -0.2 3.2 1.1 2.4 0.5 -0.3 0.6 -1.3 0.3 -2.1z m-0.3 -14.4 c0 -0.6 -0.7 -2.7 -1.7 -4.8 -0.9 -2 -1.6 -4.4 -1.5 -5.2 0.1 -0.8 -0.1 -1 -0.4 -0.4 -0.3 0.7 -2.2 1 -4.9 0.6 -5.1 -0.5 -10.1 1.2 -11.6 3.9 -0.6 1.1 -1.6 1.6 -2.7 1.3 -1.4 -0.5 -1.4 -0.4 -0.3 0.4 1.2 0.8 1.2 1.4 0.3 2.5 -0.7 0.7 -0.9 1.7 -0.5 2 1.1 1.2 23.3 0.8 23.3 -0.3z"/>
  <path d="M506.3 716 c-3.2 -1.9 -5.3 -4.8 -5.3 -7.1 0 -0.7 0.6 -0.4 1.4 0.7 1.4 1.8 1.4 1.8 1.3 0 -0.1 -1 0.3 -2.1 0.9 -2.3 0.7 -0.2 1 0.6 0.9 2.2 -0.2 1.4 0.1 2.5 0.7 2.5 0.6 0 0.7 -0.7 0.4 -1.6 -0.4 -1 0.5 -0.6 2.5 1 3.3 2.8 6.8 3.2 11.8 1.5 7 -2.5 5.8 -10.1 -1.9 -11.4 -2.2 -0.4 -4.3 -1.2 -4.6 -1.7 -0.5 -0.7 -0.2 -0.8 0.7 -0.3 1.2 0.7 1.2 0.6 0 -0.6 -1 -1.1 -1.5 -1.1 -1.8 -0.1 -0.3 0.6 -0.8 1.2 -1.3 1.2 -0.5 0 -0.7 -0.6 -0.6 -1.2 0.4 -3 1.6 -3.5 6.3 -2.7 6.5 1 9.4 2.3 11.8 5 1.5 1.8 1.5 2 0.3 1 -1.3 -1 -1.8 -1 -1.8 -0.1 0 0.6 0.9 1.4 2.1 1.7 1.7 0.5 1.9 1.1 1.3 3.7 -0.3 1.7 -1.1 3.4 -1.6 3.7 -0.5 0.3 -0.8 1 -0.7 1.5 0.5 1.5 -6.2 5.4 -9.3 5.4 -1.6 0 -3.1 -0.6 -3.4 -1.5 -0.4 -0.8 -1.1 -1.2 -1.6 -0.9 -0.6 0.4 -0.5 1 0.3 1.5 1 0.6 0.2 0.9 -2.1 0.9 -1.9 0 -4.9 -0.9 -6.7 -2z m21.2 -15.9 c-0.6 -0.5 -2.1 -1.1 -3.5 -1.5 -2.1 -0.5 -2 -0.3 0.5 0.9 3.5 1.7 4.2 1.8 3 0.6z"/>
  <path d="M506.4 696.8 c-1.5 -1.9 -1.6 -2 -0.1 -0.9 0.9 0.7 1.7 0.9 1.7 0.3 0 -1.3 -2.5 -3.3 -3.3 -2.6 -1 1 0 -6.2 1.2 -8.3 2.5 -4.7 16 -7.3 19.5 -3.7 0.9 0.8 1.6 1.2 1.6 0.8 0 -0.3 0.6 -0.1 1.4 0.6 1.9 1.5 1.1 3.5 -1.5 3.7 -2.1 0.2 -4.2 -3.3 -3.1 -5.2 0.3 -0.5 -0.2 -0.4 -1.2 0.4 -0.9 0.8 -1.3 1.7 -0.7 2 0.5 0.3 -1.3 0.7 -4 0.8 -3.2 0.1 -4.7 -0.3 -4.2 -1 0.3 -0.6 0.1 -0.7 -0.6 -0.3 -0.6 0.4 -0.9 1.2 -0.6 1.7 0.4 0.5 -0.1 1.2 -0.9 1.5 -2.4 0.9 -3 4.3 -1.1 6.4 1.4 1.5 1.4 2.1 0.3 3.9 -1.6 2.6 -2 2.6 -4.4 -0.1z"/>
  <path d="M542.6 682.9 c-3.6 -4.3 -3.5 -9.1 0.3 -13 1.7 -1.7 3.9 -2.9 5.3 -2.8 2 0.1 2 0.2 0.3 0.6 -8.2 2.1 -10.1 12.1 -3.1 16.4 1.9 1.2 2.5 1.9 1.4 1.9 -0.9 0 -2.8 -1.4 -4.2 -3.1z"/>
  <path d="M547.2 675.5 c-0.1 -1.9 0.2 -3.6 0.6 -3.9 0.8 -0.4 0.7 6.2 0 7 -0.3 0.2 -0.5 -1.2 -0.6 -3.1z"/>
  <path d="M559.2 676 c0 -1.9 0.2 -2.7 0.5 -1.7 0.2 0.9 0.2 2.5 0 3.5 -0.3 0.9 -0.5 0.1 -0.5 -1.8z"/>
  <path d="M448.2 673.8 c-0.6 -0.8 -0.6 -2.2 -0.1 -3.5 1.1 -2.9 6.1 -2.7 6.5 0.2 0.6 3.8 -4 6.1 -6.4 3.3z"/>
  <path d="M557.3 670.5 c-0.5 -0.8 -2.2 -2 -3.9 -2.4 -2.3 -0.7 -2.4 -0.9 -0.8 -1 2.4 -0.1 7.3 3.3 6.2 4.4 -0.3 0.4 -1 -0.1 -1.5 -1z"/>
 </g>
 <g fill="#ffbc67">
  <path d="M855.3 582.9 c4.2 -4.8 7.7 -9.4 7.7 -10.2 0 -0.9 -1.2 -2.4 -2.6 -3.4 -1.4 -1 -3.8 -3.1 -5.2 -4.7 -1.5 -1.6 -3.4 -3.7 -4.3 -4.6 -0.8 -0.9 -1.3 -2.2 -1.1 -2.8 0.2 -0.7 0 -1.2 -0.5 -1.2 -0.4 0 -0.9 -1.4 -0.9 -3.2 -0.1 -2.1 -0.9 -3.7 -2.7 -5 -1.6 -1.1 -2.4 -2.5 -2 -3.4 0.6 -1.6 -1.5 -4.7 -2.7 -3.9 -1.3 0.8 -1.9 -3.2 -0.7 -4.4 0.8 -0.8 0.8 -1.1 -0.1 -1.1 -0.6 0 -0.9 -0.6 -0.6 -1.3 0.3 -0.8 0 -2.6 -0.6 -4.1 -0.9 -2.3 -1.3 -2.6 -2.5 -1.6 -3.6 3 -1 -2 6 -11.5 7.9 -10.7 9.1 -12.7 7.2 -11.9 -2.2 0.8 -4.4 -3 -6.4 -10.7 -1.4 -5.6 -4.3 -12 -4.3 -9.4 0 0.5 -0.6 0 -1.4 -1 -0.8 -1.1 -1.2 -2.3 -1 -2.7 0.3 -0.4 -0.2 -2.4 -1.1 -4.5 -0.9 -2 -1.3 -4.3 -1.1 -5 0.3 -0.7 0.1 -1.3 -0.4 -1.3 -0.5 0 -1.4 -1.7 -1.9 -3.8 -0.6 -2.1 -2.6 -5.6 -4.4 -7.8 -1.8 -2.1 -4 -5.5 -4.7 -7.4 -1.9 -4.5 -7.7 -10.5 -11.3 -11.4 -2.4 -0.6 -2.9 -0.3 -3.8 2.2 -0.6 1.8 -1.7 2.8 -3.1 2.9 -1.2 0.1 -3.7 1.7 -5.7 3.5 -7 6.6 -19.4 18.4 -22.8 21.6 -1.9 1.9 -3.7 3.2 -3.9 2.9 -0.3 -0.3 1.9 -2.7 4.8 -5.3 2.9 -2.7 18 -17.7 33.5 -33.4 21.5 -21.7 28.3 -27.9 28.3 -26.2 0 1.8 0.6 2.2 3 2.2 3 0 3 0.1 3 5.5 0 3 -0.7 7.3 -1.6 9.5 -1.9 4.7 -1.3 10.6 1.4 15.2 0.9 1.6 6.2 6 11.7 9.8 5.5 3.8 10.8 8.1 11.8 9.5 3.3 4.6 4.7 10.5 4.7 19.9 0 8.4 1.2 14.3 3.9 19.4 0.5 0.9 2 4 3.2 6.7 1.2 2.8 3.3 6.4 4.5 8.2 1.3 1.7 2.4 3.4 2.4 3.7 0 1.2 6.9 11.2 8.9 13 1.1 1.1 2.1 2.7 2.1 3.8 0 1.6 2.4 2.5 5.5 1.8 1.2 -0.2 -1.9 3.5 -6.4 7.7 -1.9 1.7 -3.9 2.9 -4.4 2.6 -0.6 -0.3 -0.7 -0.2 -0.4 0.4 0.8 1.3 -10.7 12.6 -11.8 11.6 -0.4 -0.5 -0.5 -0.3 -0.2 0.3 0.8 1.4 -6.6 8.7 -7.8 7.7 -0.4 -0.5 -0.6 -0.3 -0.2 0.2 0.5 1.1 -1.2 2.9 -16.3 17 l-8.4 8 7.7 -8.6z"/>
  <path d="M766.5 477.6 c0.9 -1.3 2.4 -2.7 3.3 -3.1 1 -0.4 0.5 0.6 -1.2 2.4 -3.6 3.7 -4.2 3.9 -2.1 0.7z"/>
  <path d="M816.2 422.6 c0.9 -0.9 2.4 -1.6 3.2 -1.6 0.9 0 1.6 -0.8 1.6 -1.8 0 -2.3 4 -6.2 6.3 -6.2 1 0 1.7 -0.8 1.7 -1.8 0 -2.2 3.6 -5.4 5.6 -5 1.9 0.4 -14.2 16.3 -17.6 17.3 -2.2 0.7 -2.3 0.6 -0.8 -0.9z"/>
  <path d="M865 375.5 c0 -3.3 0.2 -3.5 3.1 -3.5 2.9 0 3 0.2 1.8 1.8 -1.3 1.5 -1.2 1.6 0.4 0.3 1.5 -1.2 1.7 -1.1 1.7 1.8 0 2.9 -0.2 3.1 -3.5 3.1 -3.3 0 -3.5 -0.2 -3.5 -3.5z"/>
  <path d="M872 369.6 c0 -2.2 0.6 -3.6 1.6 -4 2.4 -0.9 3.6 -0.7 2.8 0.6 -0.4 0.7 -0.3 0.8 0.5 0.4 1.5 -1 4.1 1.1 4.1 3.4 0 2.1 -1.9 3 -6.1 3 -2.6 0 -2.9 -0.3 -2.9 -3.4z"/>
 </g>
 <g fill="#b371fe">
  <path d="M820 425.5 c0.8 -1 5.7 -6.1 10.8 -11.3 5 -5.2 9.2 -9.9 9.2 -10.5 0 -0.7 -4.7 3.5 -10.3 9.1 -9 8.9 -10.9 10.4 -14.4 10.9 -4.2 0.5 -8.8 -1.2 -12.6 -4.8 -1.2 -1 -2.6 -1.9 -3.2 -1.9 -0.5 0 -2.7 -0.9 -4.8 -2 -2 -1.1 -3.7 -1.8 -3.7 -1.5 0 0.3 -1 -0.3 -2.2 -1.5 -2.9 -2.6 -3.6 -2.5 -4.9 0.8 l-1.1 2.7 -2.6 -5.5 c-4.9 -10.3 -16.8 -20.8 -43.2 -38.3 -28.4 -18.7 -36.2 -25.1 -41.3 -33.8 -5.5 -9.4 -7.2 -15.4 -5.8 -20.7 0.9 -3.1 1.9 -4.6 3.7 -5.2 3.9 -1.5 7.4 -1.2 7.4 0.6 0 2 1.8 3.7 6.6 6.2 2.1 1.1 4.8 2.9 5.9 3.9 3 2.8 15.4 10.8 20.7 13.4 2.7 1.3 4.8 2.6 4.8 2.9 0 0.4 2.4 1.7 5.3 2.9 17.9 7.8 28.5 13.2 31.5 15.9 0.7 0.6 1.9 1.2 2.6 1.2 0.7 0 2.1 0.9 3.1 2 1 1.1 2.6 2 3.5 2 1 0 2 0.6 2.3 1.4 0.3 0.7 1.8 1.7 3.4 2.1 1.5 0.3 3.6 1.5 4.6 2.6 1 1 2.4 1.9 3.2 1.9 0.7 0 4.4 1.8 8.3 4 3.8 2.2 7.4 4 8 4 2 0 17.3 7.7 19.6 9.9 1.1 1 3.8 2.3 5.9 2.6 3.7 0.7 3.8 0.7 17.1 -12.1 7.3 -7.1 13.4 -13.7 13.5 -14.6 0.1 -1.4 0.5 -1.5 3.1 -0.7 1.7 0.6 2.7 1.6 2.3 2.2 -0.3 0.6 -0.1 0.7 0.5 0.3 1.2 -0.7 5.2 1.3 5.2 2.6 0 0.5 -0.7 0.8 -1.5 0.8 -0.8 0 -1.5 0.5 -1.5 1 0 0.6 -0.4 1 -0.9 1 -0.5 0 -4 3.3 -7.8 7.2 -13.5 14.3 -23.1 23.8 -24.1 23.8 -0.6 0 -1.4 0.9 -1.7 2 -0.3 1.1 -1.1 2 -1.6 2 -0.6 0 -5.2 3.8 -10.3 8.5 -5.1 4.7 -10.3 9.3 -11.7 10.2 -2.3 1.6 -2.4 1.6 -0.9 -0.2z"/>
  <path d="M857 362 c0 -0.5 -1 -1 -2.2 -1 -4.3 0 -6.8 -1.2 -6.8 -3.1 0 -2.4 0.7 -2.4 9.1 0.3 7.5 2.5 9.1 4.8 3.4 4.8 -1.9 0 -3.5 -0.4 -3.5 -1z"/>
  <path d="M761.3 330.5 c-0.3 -0.9 -0.3 -1.8 0 -2.1 1.1 -1.1 6.7 0.8 6.7 2.2 0 2 -5.9 1.9 -6.7 -0.1z"/>
 </g>
 <g fill="#c283ff">
  <path d="M847 397.4 c4.1 -4.2 11.7 -11.9 16.8 -17.1 5 -5.2 9.2 -9.7 9.2 -10 0 -0.4 -0.2 -0.4 -0.4 -0.2 -0.3 0.2 -7 6.9 -15 14.8 -7.9 7.9 -14.9 14 -15.5 13.7 -0.5 -0.4 -0.8 -1.3 -0.5 -2 0.4 -1 -0.8 -1.6 -3.9 -2 -2.5 -0.4 -5.2 -1.5 -6.2 -2.6 -1.7 -1.9 -17.6 -10 -19.7 -10 -0.6 0 -4.2 -1.8 -8 -4 -3.9 -2.2 -7.6 -4 -8.3 -4 -0.8 0 -2.2 -0.9 -3.2 -1.9 -1 -1.1 -3.1 -2.3 -4.6 -2.6 -1.6 -0.4 -3.1 -1.4 -3.4 -2.1 -0.3 -0.8 -1.3 -1.4 -2.3 -1.4 -0.9 0 -2.5 -0.9 -3.5 -2 -1 -1.1 -2.4 -2 -3.1 -2 -0.7 0 -1.9 -0.6 -2.6 -1.2 -2 -1.9 -4.6 -3.4 -10.8 -6.3 -3 -1.5 -7.6 -3.8 -10.2 -5.1 -2.7 -1.3 -4.8 -2.2 -4.8 -1.9 0 0.7 -10.3 -4.5 -11 -5.5 -0.3 -0.4 -2.5 -1.8 -5 -3 -2.5 -1.3 -6.9 -3.8 -9.8 -5.6 -2.8 -1.9 -5.3 -3.3 -5.5 -3.1 -0.1 0.1 -1.8 -1.3 -3.7 -3.2 -4.1 -3.9 -9.9 -7 -11.9 -6.3 -0.9 0.3 -1.1 0 -0.6 -0.7 0.4 -0.7 -0.3 -2.1 -1.6 -3.2 -1.8 -1.6 -2 -2.2 -1 -2.8 1.1 -0.7 1 -1.1 -0.5 -2 -1.5 -1 -0.1 -1.1 7.1 -0.8 9.4 0.4 28.6 5.4 26.4 6.8 -0.8 0.5 -0.7 0.9 0.2 1.5 0.7 0.4 1.4 0.3 1.7 -0.4 0.2 -0.7 0.8 -1.2 1.3 -1.2 0.6 0 0.7 0.4 0.4 1 -0.3 0.5 0.2 0.9 1.2 0.8 3.2 -0.2 5.4 0.2 5 0.9 -0.3 0.5 0.8 0.8 2.4 0.9 1.7 0.1 3.9 1.1 5 2.3 2.2 2.3 3.8 2.9 2 0.7 -1.1 -1.2 -0.7 -1.3 2.4 -0.3 3.1 0.9 3.4 1.2 1.9 1.8 -1.6 0.6 -1.6 0.8 -0.2 0.8 0.9 0.1 2.5 0.4 3.5 0.7 1.5 0.5 1.6 0.4 0.3 -0.6 -1.3 -1 -1.2 -1.1 0.3 -0.6 1.1 0.3 3 0.9 4.3 1.2 1.3 0.3 2.2 1 1.9 1.4 -0.2 0.4 0.6 0.5 1.9 0.3 1.5 -0.3 3.2 0.4 5.1 2.1 3 2.8 4.5 3.5 2.6 1.2 -1 -1.2 -0.7 -1.3 2.4 -0.3 2.5 0.7 3.2 1.3 2.3 2 -0.8 0.5 -0.3 0.6 1.5 0.2 2.1 -0.4 2.7 -0.3 2.1 0.6 -0.4 0.8 -0.3 0.9 0.5 0.5 1.4 -0.9 13.1 2.4 13.1 3.6 0 0.5 0.5 0.6 1 0.3 0.6 -0.3 1 -0.1 1 0.5 0 0.7 0.7 1 1.5 0.6 0.8 -0.3 2.5 -0.1 3.7 0.5 2.1 0.9 2.1 0.9 -0.4 0.4 -1.5 -0.3 -3 0 -3.4 0.7 -0.4 0.6 -0.3 0.8 0.3 0.5 0.6 -0.4 2.4 -0.2 4.2 0.3 2.2 0.6 2.9 0.6 2.5 -0.2 -0.5 -0.7 -0.2 -0.9 0.7 -0.6 0.8 0.3 4.8 1.6 8.9 2.8 21.4 6.6 56.4 18.2 60.4 20.1 6.5 3 6.1 6.9 -1.2 9.9 -1.2 0.5 -2.6 2 -3.1 3.2 -1.1 2.7 -6 7.6 -9.3 9.2 -1.3 0.6 -2.7 2.1 -3.3 3.4 -0.5 1.2 -1.5 2.2 -2.1 2.2 -0.6 0 -3.1 2 -5.5 4.5 -2.4 2.5 -5 4.5 -5.6 4.5 -0.7 0 -1.3 0.7 -1.3 1.5 0 0.9 -0.9 1.5 -2.2 1.5 -1.9 0 -1 -1.3 5.2 -7.6z"/>
  <path d="M691.1 327.9 c-1.6 -4.6 -1.4 -10.2 0.5 -12.5 1.5 -1.9 1.6 -1.9 0.8 0.1 -1.4 3.9 -1.6 8.5 -0.5 11.6 0.6 1.8 0.9 3.4 0.7 3.6 -0.2 0.2 -0.9 -1 -1.5 -2.8z"/>
 </g>
 <g fill="#ffdb75">
  <path d="M895 540 c-0.6 -1.2 -0.9 -2.8 -0.6 -3.5 0.2 -0.7 -0.5 -2.1 -1.6 -3.2 -2 -1.7 -8.8 -11.8 -8.8 -12.9 0 -0.3 -1.1 -2 -2.4 -3.7 -1.2 -1.8 -3.3 -5.4 -4.5 -8.2 -1.3 -2.7 -2.9 -6.2 -3.7 -7.7 -0.8 -1.4 -1.4 -3.4 -1.4 -4.3 0 -0.9 -0.4 -1.4 -0.9 -1.1 -0.5 0.3 -0.9 0 -0.8 -0.7 0.1 -3.2 -0.4 -4.8 -1.3 -4.2 -0.5 0.3 -1 -0.1 -1 -0.9 0 -0.9 0.5 -1.6 1 -1.6 1.5 0 1.2 -14.2 -0.5 -18.9 -2.3 -6.5 -4.3 -8.7 -15 -16.1 -10.8 -7.4 -12.7 -9.7 -14.3 -17.5 -1.1 -5 -0.6 -9 1.7 -14.8 0.6 -1.6 1.1 -4 1.1 -5.5 0 -2.4 -0.1 -2.5 -1.3 -0.7 -1.1 1.3 -2.2 1.7 -4.4 1.2 -2.5 -0.5 -3.8 0.2 -9.4 4.9 -3.5 3.1 -7.1 6.3 -8 7.2 -2.4 2.6 -15.4 14.8 -14.9 14 2 -3 70.5 -71.8 72 -72.3 1.2 -0.4 1.7 -1.2 1.3 -2.1 -0.5 -1.2 -0.1 -1.3 2.1 -0.2 2 0.8 2.6 1.7 2.3 3.2 -0.3 1.2 -0.1 3 0.4 4.1 0.7 1.6 0.8 1.4 0.5 -1 l-0.5 -3 1.4 3.1 c2.1 4.6 5.5 22.5 4.9 25.1 -0.4 1.3 -0.3 4 0.1 6 0.6 3 0.9 3.4 1.4 1.9 0.5 -1.3 1.3 0.9 2.5 6.7 1 4.7 1.5 9.1 1.1 9.8 -0.5 0.7 -0.4 1 0.2 0.6 1 -0.6 2.1 3.6 3.9 14.8 0.3 2.5 0.3 2.7 -0.6 1 -1.2 -2.4 -0.5 3.9 1.1 9.8 1.3 4.8 1.9 4.8 1.4 0 l-0.5 -3.8 1 3.5 c1.2 4.2 6 27.9 5.9 28.8 0 0.4 -0.4 -0.2 -0.9 -1.3 -0.8 -1.8 -0.9 -1.8 -0.9 0.5 0 1.4 0.4 3.2 0.9 4 0.8 1.3 1 1.2 1 -0.4 0 -3 0.7 -1.5 1.3 2.9 0.5 2.8 0.4 3.4 -0.3 2 -0.8 -1.8 -0.9 -1.7 -0.9 0.8 -0.1 1.5 0.4 2.6 1.1 2.5 1.4 -0.4 6 20.5 5.4 24.9 -0.2 1.8 0 3 0.5 2.7 1.3 -0.8 1.1 1.6 -0.7 7.5 -1.5 5.3 -7.8 13.6 -9.5 12.5 -0.5 -0.3 -0.8 -0.1 -0.7 0.5 0.2 0.6 -1.1 2 -2.9 3.2 l-3.2 2 -1.1 -2.1z"/>
 </g>
</svg>